<svg xmlns="http://www.w3.org/2000/svg" viewBox="0 0 20.001 20">
    <g transform="translate(-4 -4)">
        <path d="M-1355-5730a10.011,10.011,0,0,1-10-10,10.012,10.012,0,0,1,10-10,10.012,10.012,0,0,1,10,10A10.011,10.011,0,0,1-1355-5730Zm-4.248-10.042a.774.774,0,0,0-.569.243.68.68,0,0,0-.183.512.689.689,0,0,0,.258.488l3.292,2.625a.779.779,0,0,0,.494.173.776.776,0,0,0,.57-.244l5.2-5.58a.674.674,0,0,0,.184-.51.688.688,0,0,0-.258-.489.783.783,0,0,0-.495-.174.776.776,0,0,0-.569.243l-4.709,5.053-2.719-2.167a.779.779,0,0,0-.492-.173Z" transform="translate(1369 5754)"></path>
    </g>
</svg>