<svg xmlns="http://www.w3.org/2000/svg" width="22.851" height="24" viewBox="0 0 22.851 24">
  <g id="55503760420f838aed1fc3f527395aaf-Group_2414" data-name="Group 2414" transform="translate(-1789.99 -100.756)">
    <path id="55503760420f838aed1fc3f527395aaf-Path_512" data-name="Path 512" d="M1819.742,100.806l-13.124,11.241a.377.377,0,0,0,.1.636l5.606,2.242-4.769,9.538a.2.2,0,0,0,.314.24l12.883-11.548a.377.377,0,0,0-.12-.633l-5.422-2.013,4.837-9.458A.2.2,0,0,0,1819.742,100.806Z" transform="translate(-12.611)" fill="#04be02"/>
    <g id="55503760420f838aed1fc3f527395aaf-Group_2413" data-name="Group 2413" transform="translate(1789.99 100.85)">
      <path id="55503760420f838aed1fc3f527395aaf-Path_513" data-name="Path 513" d="M1836.638,110.7l-.734,1.436a.629.629,0,0,0,.159.77,8.83,8.83,0,0,1-5.637,15.63h-.035a.867.867,0,0,0-.585.219l-1.751,1.57a.341.341,0,0,0,.158.588,11.422,11.422,0,0,0,9.053-20.355A.42.42,0,0,0,1836.638,110.7Z" transform="translate(-1819 -108.278)" fill="#04be02"/>
      <path id="55503760420f838aed1fc3f527395aaf-Path_514" data-name="Path 514" d="M1792.582,112.579a8.844,8.844,0,0,1,8.834-8.834c.178,0,.355.006.531.017a.628.628,0,0,0,.45-.147l1.851-1.586a.319.319,0,0,0-.13-.551,11.421,11.421,0,0,0-9.479,20.292.375.375,0,0,0,.559-.131l.772-1.543a.559.559,0,0,0-.144-.683A8.819,8.819,0,0,1,1792.582,112.579Z" transform="translate(-1789.99 -101.154)" fill="#04be02"/>
    </g>
  </g>
</svg>
