<svg xmlns="http://www.w3.org/2000/svg" width="24" height="24" viewBox="0 0 24 24">
  <path d="M1610.592-172.388l-6.849-6.64a9.445,9.445,0,0,1-5.266,1.584,9.427,9.427,0,0,1-6.659-2.718,9.154,9.154,0,0,1-2.757-6.561,9.158,9.158,0,0,1,2.757-6.561,9.429,9.429,0,0,1,6.659-2.718,9.427,9.427,0,0,1,6.658,2.718,9.152,9.152,0,0,1,2.758,6.561,9.12,9.12,0,0,1-2,5.715l6.692,6.49a1.438,1.438,0,0,1,.081,2.051,1.476,1.476,0,0,1-1.08.466A1.475,1.475,0,0,1,1610.592-172.388Zm-18.7-14.335a6.546,6.546,0,0,0,6.588,6.488,6.617,6.617,0,0,0,4.056-1.38,1.457,1.457,0,0,1,.234-.333,1.467,1.467,0,0,1,.534-.363,6.412,6.412,0,0,0,1.762-4.413,6.545,6.545,0,0,0-6.586-6.488A6.546,6.546,0,0,0,1591.89-186.723Z" transform="translate(-1589.062 196.002)" />
</svg>
