<svg xmlns="http://www.w3.org/2000/svg" width="23" height="28" viewBox="0 0 23 28">
  <g id="c3d44a96835f93a7cd90e70b15ba7555-comm_btn_top" transform="translate(-3262 -3658)">
    <path id="c3d44a96835f93a7cd90e70b15ba7555-Path_23335" data-name="Path 23335" d="M1137.006,709.978a1.777,1.777,0,0,1-1.443-1.812V693.3l-.232.515a3.421,3.421,0,0,1-.626.859l-4.756,4.739a1.777,1.777,0,0,1-2.275.249,1.644,1.644,0,0,1-.168-.148,1.717,1.717,0,0,1,0-2.428l8.586-8.586v0a1.718,1.718,0,0,1,2.428,0l8.587,8.586a1.717,1.717,0,0,1-.223,2.576,1.778,1.778,0,0,1-2.276-.249l-4.748-4.747a3.431,3.431,0,0,1-.687-.97l-.172-.37V708.26a1.715,1.715,0,0,1-1.992,1.717ZM1127.75,685.5a1.75,1.75,0,1,1,0-3.5h19.5a1.75,1.75,0,1,1,0,3.5Z" transform="translate(2136 2976)" fill="#fff"/>
  </g>
</svg>
