<svg xmlns="http://www.w3.org/2000/svg" width="36" height="40" viewBox="0 0 36 40">
  <g transform="translate(0.25 0.7)">
    <path d="M-4642.4,260.232v-4.045h2.869a.641.641,0,0,0,.632-.644V230.686a.641.641,0,0,0-.635-.641h-21.012a.642.642,0,0,0-.632.643V233.6h-3.989v-2.911a4.665,4.665,0,0,1,4.621-4.686h21.014a4.663,4.663,0,0,1,4.621,4.686v24.86a4.663,4.663,0,0,1-4.621,4.686Z" transform="translate(4670.66 -226.7)" opacity="0.6"/>
    <path d="M-4660.546,258.453a4.664,4.664,0,0,1-4.621-4.686V230.686a4.665,4.665,0,0,1,4.621-4.686h19.264a4.664,4.664,0,0,1,4.621,4.686v23.082a4.662,4.662,0,0,1-4.621,4.686Zm-.632-27.768v23.082a.637.637,0,0,0,.632.641h19.264a.637.637,0,0,0,.632-.641V230.686a.637.637,0,0,0-.632-.641h-19.264A.637.637,0,0,0-4661.178,230.686Z" transform="translate(4664.917 -219.153)"/>
  </g>
</svg>
