<svg xmlns="http://www.w3.org/2000/svg" width="1em" height="1em" class="" viewBox="0 0 100 76.001">
    <g transform="translate(434.001 -8699.999)">
        <rect width="100" height="76" transform="translate(-434.001 8700)" opacity="0"></rect>
        <path d="M44.449,74.993a1.615,1.615,0,0,1,.326-.412c1.369-.911.98-1.992.211-2.922A9.517,9.517,0,0,0,42.4,69.7c-.408-.238-.82-.463-1.232-.7.027-.064.055-.133.086-.2l3.949,1.067a8.562,8.562,0,0,0-2.629-2.015,56.313,56.313,0,0,0-8.588-3.532A49.051,49.051,0,0,1,25.4,60.771a30.178,30.178,0,0,1-7.611-5.826A15.611,15.611,0,0,1,14,48.171a13.893,13.893,0,0,1,.779-8.854A22.56,22.56,0,0,1,17.7,34.086c.082-.11.174-.211.262-.321-1.041,7.209,1.506,13.086,6.406,18.161a5.426,5.426,0,0,1,.871-4.1c.092.156.16.22.16.289,0,2.89,1.488,5.038,3.408,7A29.675,29.675,0,0,0,35.8,60.1c.2.11.395.229.586.353.043.023.047.1.115.252a11.166,11.166,0,0,1-1.086-.3A62.653,62.653,0,0,1,27.6,56.827a28.22,28.22,0,0,1-7.117-5.373,29.741,29.741,0,0,1-2.625-3.93.357.357,0,0,0-.234-.188,14.386,14.386,0,0,0,.449,1.4,15.824,15.824,0,0,0,3.682,5.226,25.964,25.964,0,0,0,3.027,2.51,42.751,42.751,0,0,0,8.758,4.718c2.648,1.04,5.332,1.979,7.971,3.037A28.685,28.685,0,0,1,47.9,67.582a6.35,6.35,0,0,1,2,2.093,2.457,2.457,0,0,1-.678,3.3,12.608,12.608,0,0,1-3.678,1.851,2.651,2.651,0,0,1-.893.175C44.59,75,44.521,75,44.449,74.993ZM37.5,59.878a32.129,32.129,0,0,1-2.152-3.811,53.223,53.223,0,0,0-3.316-6.793,1.042,1.042,0,0,1-.072-.293c.137-.082.266-.22.41-.238a10.236,10.236,0,0,0,5.383-2.492c.762-.646,1.471-1.356,2.223-2.02a5.3,5.3,0,0,1,.742-.472l.182.11a4.114,4.114,0,0,1-.082.87q-.668,2.226-1.379,4.434c-.631,1.96-1.359,3.888-1.9,5.872A5.241,5.241,0,0,0,39.4,61.023a1.072,1.072,0,0,1,.164.247l-.113.133A5.294,5.294,0,0,1,37.5,59.878ZM22,59.543a30.58,30.58,0,0,1-9.684-6.156,18.005,18.005,0,0,1-5.006-7.833,16.279,16.279,0,0,1-.641-6.293A24.813,24.813,0,0,1,10.861,28a55.038,55.038,0,0,1,7.275-8.817,58.632,58.632,0,0,1,9.594-7.951,33.8,33.8,0,0,1,9.238-4.365,13.164,13.164,0,0,1,5.113-.508c1.611.188,2.473.824,2.711,2.093a3.871,3.871,0,0,1-.119,1.6,3.336,3.336,0,0,1-1.113,1.906,1.474,1.474,0,0,1-.182-.38C43,9.513,41.125,8.79,39.318,9.06a13.589,13.589,0,0,0-4.437,1.6,49.633,49.633,0,0,0-9.977,7.31c-.627.582-1.254,1.163-2,1.864.781.215,1.406.38,2.027.554.33.1.66.206.99.3a3.122,3.122,0,0,0,1.4.188,4.77,4.77,0,0,1,1.781.407.443.443,0,0,1,.225.243,3.918,3.918,0,0,1,.309,2.583c-.316-.124-.555-.206-.779-.307-1.307-.6-2.594-1.232-3.922-1.777-.766-.312-1.594-.458-2.387-.706a1.179,1.179,0,0,0-1.418.49c-1.3,1.681-2.656,3.316-3.908,5.034a34.246,34.246,0,0,0-5.623,11.464c-1.127,4.3-1.078,8.542,1.07,12.568a16.723,16.723,0,0,0,5.465,5.991c1.322.9,2.752,1.644,4.135,2.46.193.11.385.22.572.33l-.045.124C22.529,59.7,22.26,59.644,22,59.543ZM6.025,46.861A19.852,19.852,0,0,1,3.75,39.335a18.116,18.116,0,0,1,1.488-8.561,29.068,29.068,0,0,1,5.775-8.6,46.768,46.768,0,0,1,6.365-5.62c1.467-1.1,3.043-2.056,4.572-3.073.139-.087.293-.142.439-.215l.129.169c-.518.394-1.031.792-1.553,1.177a59.428,59.428,0,0,0-5.75,4.915,40.925,40.925,0,0,0-5.293,6.211,26.675,26.675,0,0,0-3.83,7.951,20.87,20.87,0,0,0-.75,8.171A18,18,0,0,0,7.1,48.12a2.2,2.2,0,0,1,.109.375l-.17.083C6.7,48.006,6.332,47.447,6.025,46.861ZM28.52,42.908c-.7-.518-1.361-1.09-2.08-1.672a9.348,9.348,0,0,0,1.145-.829c.313-.293.5-.7.809-1a9.317,9.317,0,0,1,1.139-.9,1.658,1.658,0,0,1,1.549-.22,2.24,2.24,0,0,0,1.25.041,2.386,2.386,0,0,1,2.383.582,10.037,10.037,0,0,1,.971.976c.43.444.846.9,1.355,1.438-.17.146-.408.366-.656.568-.6.481-1.189.985-1.822,1.429a2.876,2.876,0,0,1-2.35.563.86.86,0,0,0-.34-.023,3.22,3.22,0,0,1-.75.09A4.4,4.4,0,0,1,28.52,42.908ZM29.875,40.3a5.262,5.262,0,0,0,3.705-.1c-1.154-.046-2.16-.1-3.17-.124H30.4C30.283,40.073,30.158,40.176,29.875,40.3Zm12.088,2.656a26.161,26.161,0,0,0,3.6-10.832,5.863,5.863,0,0,1,1.516,2.359,5.806,5.806,0,0,0-.125-3.321c-.25-1.1-.611-2.18-.947-3.339a1.4,1.4,0,0,1,.326.105,11.1,11.1,0,0,1,2.455,2.6,5.623,5.623,0,0,1,.3,6.023,16.548,16.548,0,0,1-6.77,6.426.106.106,0,0,1-.055.012C42.2,42.989,42.105,42.964,41.963,42.954ZM2.646,36.807a13.594,13.594,0,0,1-1.566-5.6,12.265,12.265,0,0,1,1.4-6.06,21.742,21.742,0,0,1,4.43-5.771,44.509,44.509,0,0,1,6.535-5.025A82.3,82.3,0,0,1,21.8,9.7c.314-.161.648-.289.975-.431l.1.2c-.605.353-1.213.7-1.812,1.058a67.647,67.647,0,0,0-9.281,6.683,38.869,38.869,0,0,0-5.795,6.1,18.45,18.45,0,0,0-3.32,6.857,11.561,11.561,0,0,0,.418,6.77c.055.151.109.3.166.453l-.143.078A5.069,5.069,0,0,1,2.646,36.807Zm47.3-.792c.146-.275.289-.554.439-.825a4.969,4.969,0,0,0-.287-5.437,7.658,7.658,0,0,0-.748-1.191c-.8-.852-1.666-1.649-2.5-2.469-.125-.128-.248-.261-.371-.389l.09-.156a19.125,19.125,0,0,1,1.912.669,7.5,7.5,0,0,1,3.512,2.666,3.857,3.857,0,0,1,.551,2.963,8.9,8.9,0,0,1-2.428,4.246Zm-16.42-.009a5.572,5.572,0,0,1-.566-.426c-.131-.1-.5-.21-.449-.421s.5-.16.654-.128a1.235,1.235,0,0,1,.746.449.643.643,0,0,1,.139.288.3.3,0,0,1-.125.284.252.252,0,0,1-.135.036A.55.55,0,0,1,33.525,36.005Zm-4.1.046a.282.282,0,0,1-.125-.284.552.552,0,0,1,.137-.288,1.226,1.226,0,0,1,.742-.449c.152-.032.615-.083.66.128s-.324.325-.449.421a6.336,6.336,0,0,1-.568.426.563.563,0,0,1-.264.082A.245.245,0,0,1,29.428,36.051ZM37.7,28.5a4.433,4.433,0,0,1-2.217-.673c.307-.161.525-.275.926-.481l-1.027.1c2.1-2.318,5.789-2.528,7.332-.976a14.752,14.752,0,0,0-1.969-.577,8.677,8.677,0,0,0-2.006.046,12.637,12.637,0,0,1,4.113.861,5.069,5.069,0,0,0,2.7.357c-.5.563-1.178.458-2.008.486l.957.229a3.056,3.056,0,0,1-1.676.412,3.131,3.131,0,0,0-1.74.362,1.043,1.043,0,0,1-.709.11,3.147,3.147,0,0,0-2.084.087C38.082,28.709,37.891,28.489,37.7,28.5Zm-13.256.142a2.465,2.465,0,0,0-1.352.05.166.166,0,0,1-.082,0c-1.178-.211-2.359-.426-3.535-.641-.043-.009-.078-.078-.176-.178.238-.078.445-.142.719-.234-.744-.046-1.465.115-2.16-.563a5.362,5.362,0,0,0,3.377-.525l-.221-.1c1.131-1.516,5.316-1.356,7.063.976-.371-.1-.66-.174-.943-.252l-.033.06c.293.193.588.385.994.646-.811.119-1.324.76-2.1.609a1.6,1.6,0,0,1-.854.22A4.8,4.8,0,0,1,24.447,28.64Zm-1.828-2.712a7.805,7.805,0,0,0-1.354.614l3.494-.659a2.155,2.155,0,0,0-.822-.141A5.7,5.7,0,0,0,22.619,25.929Zm29.686.536a12.917,12.917,0,0,0-4.58-2.835c-.445-.188-1.059-.275-1.287-.614s-.051-.93-.027-1.406a16.765,16.765,0,0,0-.732-5.693,2.882,2.882,0,0,1-.137-.953,11.52,11.52,0,0,1,2.871,2.079c.883.77,1.7,1.622,2.652,2.551a13.345,13.345,0,0,0-2.635-3.481c-1.012-1.012-2.115-1.924-3.156-2.854.34-.06.322-.032.639.179.52.353,1.08.646,1.6,1a13.829,13.829,0,0,1,4.664,5.1,11.774,11.774,0,0,1,1.35,5.038c.033.8.023,1.6,0,2.4a4.486,4.486,0,0,1-.2.838A15.77,15.77,0,0,0,52.3,26.465ZM26.637,24.619a2.693,2.693,0,0,0-2.73-.545A6.73,6.73,0,0,0,21,25.842c-.123.119-.246.238-.379.348-.033.023-.1,0-.252,0a5.448,5.448,0,0,1,4.557-2.84,3.459,3.459,0,0,1,1.678.582A4.126,4.126,0,0,1,28.268,26.3C27.658,25.668,27.178,25.109,26.637,24.619Zm13.754-.948a7.138,7.138,0,0,1,2.635,2.144c.045.055.041.146.1.353-.7-.531-1.287-1.012-1.91-1.438a3.688,3.688,0,0,0-3.068-.719,3.5,3.5,0,0,0-1.814,1.237c-.273.32-.518.668-.779,1A3.443,3.443,0,0,1,40.391,23.671Zm-6.119-2.057c.061-.124.289-.174.445-.248.119-.055.279-.06.357-.146a1.289,1.289,0,0,1,1.084-.33c.1,0,.193,0,.281,0a5.422,5.422,0,0,0,1.057-.142c1.049-.279,2.094-.609,3.15-.861a2.611,2.611,0,0,1,1.273-.032,9.919,9.919,0,0,1,3.7,2.2c-.041.064-.08.124-.117.188a6.8,6.8,0,0,1-.684-.3,6.3,6.3,0,0,0-5.568-.137c-1.484.586-2.932,1.282-4.4,1.924-.225.1-.463.178-.756.288A3.3,3.3,0,0,1,34.271,21.614ZM3.314,17.405a3.126,3.126,0,0,1-2.107-1.374A7.139,7.139,0,0,1,.063,12.55,19.228,19.228,0,0,1,.025,9.971,1.469,1.469,0,0,1,.139,9.6l.2.014a8.928,8.928,0,0,0,.051,1.049,21.876,21.876,0,0,0,.48,2.7A2.266,2.266,0,0,0,3.754,15.01a13.023,13.023,0,0,0,3.953-1.654c2.734-1.631,5.414-3.353,8.166-4.947a96.191,96.191,0,0,1,9.609-4.837A41.438,41.438,0,0,1,34.973.55,15.407,15.407,0,0,1,40.2.453a6.274,6.274,0,0,1,4.992,3.765,2.38,2.38,0,0,1,.166,1.732,3.145,3.145,0,0,1-.295-.366,6.38,6.38,0,0,0-5.414-3.161,18.779,18.779,0,0,0-7.689,1.191c-2.023.719-4.008,1.562-5.982,2.418a65.927,65.927,0,0,0-8.5,4.516c-2.826,1.754-5.639,3.536-8.482,5.258a22.483,22.483,0,0,1-2.707,1.31,4.828,4.828,0,0,1-1.918.363A8.063,8.063,0,0,1,3.314,17.405Zm41.418-5.13c.322-.22.541-.4.779-.536a9.675,9.675,0,0,0,2.4-2.065,3.981,3.981,0,0,0,.99-4.2c-.037-.11-.078-.215-.111-.325s-.055-.215-.123-.49a3.024,3.024,0,0,1,.521.421,5.46,5.46,0,0,1,1.266,3.142A3.022,3.022,0,0,1,49.02,10.91a9.916,9.916,0,0,1-4,1.489h-.012A1.585,1.585,0,0,1,44.732,12.275Zm1.023-2.9A7.106,7.106,0,0,0,46.3,5.258a7.089,7.089,0,0,0-3.3-4.539C42.74.545,42.48.366,42.219.188L42.328,0a9.391,9.391,0,0,1,.908.385A9.755,9.755,0,0,1,46.465,2.9,4.921,4.921,0,0,1,47.2,8,12.131,12.131,0,0,1,44.9,11.606a.77.77,0,0,1-.2.165c-.037.027-.1.018-.146.023C44.963,10.993,45.416,10.209,45.756,9.376ZM26.5,10.947c.527-.38,1.039-.783,1.584-1.145a41.9,41.9,0,0,1,8.141-4.448,11.016,11.016,0,0,1,4.438-.911,3.937,3.937,0,0,1,2.656,1.063,1.341,1.341,0,0,1,.17.192.739.739,0,0,1,.041.2c-.068.023-.16.092-.207.069a6.461,6.461,0,0,0-3.965-.307,25.282,25.282,0,0,0-5.883,1.869,47.273,47.273,0,0,0-6.359,3.385,3.527,3.527,0,0,1-.518.215Z" transform="translate(-411.5 8699.999)"></path>
    </g>
</svg>