<svg xmlns="http://www.w3.org/2000/svg" width="1em" height="1em" fill="currentColor" viewBox="0 0 100 76">
    <g transform="translate(434.001 -8831)">
        <rect width="100" height="76" transform="translate(-434.001 8831)" opacity="0"></rect>
        <path d="M4.005,45a4,4,0,0,1-4-4V4a4,4,0,0,1,4-4H86a4,4,0,0,1,4,4V41a4,4,0,0,1-4,4ZM60,7V38a2,2,0,0,0,2,2h21a2,2,0,0,0,2-2V7a2,2,0,0,0-2-2h-21A2,2,0,0,0,60,7Zm-27.5,0V38a2,2,0,0,0,2,2h21a2,2,0,0,0,2-2V7a2,2,0,0,0-2-2h-21A2,2,0,0,0,32.505,7ZM5,7V38a2,2,0,0,0,2,2h21a2,2,0,0,0,2-2V7a2,2,0,0,0-2-2H7A2,2,0,0,0,5,7ZM65.674,33.626c-1.013-5.238,1.87-8.651,9.47-14.446a7.026,7.026,0,0,1-3.2-.555,6.3,6.3,0,0,0-3.154-.516,4.318,4.318,0,0,0-2.781,2.223H62.505V12.5h3.714c-.052.9.624.767,1.092.5a4.443,4.443,0,0,1,2.544-.424,33.446,33.446,0,0,1,4.028,1.058,13.338,13.338,0,0,0,4.677.583,4.684,4.684,0,0,0,3.169-1.35l2.027,2.342c-9.119,9.207-6.9,14.923-5.883,18.414Zm-27.5,0c-1.014-5.238,1.87-8.651,9.469-14.446a7.022,7.022,0,0,1-3.2-.555,6.3,6.3,0,0,0-3.155-.516,4.314,4.314,0,0,0-2.78,2.223H35V12.5h3.713c-.051.9.624.767,1.092.5a4.446,4.446,0,0,1,2.545-.424,33.474,33.474,0,0,1,4.027,1.058,13.338,13.338,0,0,0,4.677.583,4.684,4.684,0,0,0,3.169-1.35l2.027,2.342c-9.119,9.207-6.9,14.923-5.883,18.414Zm-27.5,0c-1.014-5.238,1.87-8.651,9.47-14.446a7.026,7.026,0,0,1-3.2-.555,6.3,6.3,0,0,0-3.155-.516,4.318,4.318,0,0,0-2.78,2.223H7.5V12.5h3.714c-.052.9.624.767,1.092.5a4.443,4.443,0,0,1,2.544-.424,33.49,33.49,0,0,1,4.027,1.058,13.335,13.335,0,0,0,4.677.583,4.684,4.684,0,0,0,3.169-1.35l2.026,2.342c-9.119,9.207-6.9,14.923-5.883,18.414Z" transform="translate(-429.003 8846)"></path>
    </g>
</svg>