<svg xmlns="http://www.w3.org/2000/svg" width="1em" height="1em" fill="currentColor" class="" viewBox="0 0 100 76">
    <g transform="translate(434.001 -8568)">
        <rect width="100" height="76" transform="translate(-434.001 8568)" opacity="0"></rect>
        <path d="M41.6,74l-.005-.007c-2.108-2.971-4.322-7.012-2.719-11.932a2.1,2.1,0,0,0-.819-2.662c-4.47-3.386-6-8.144-4.556-14.142a11.947,11.947,0,0,1,2.682-4.522c2.333-2.747,5.652-4.693,10.148-5.947,1.6-.445,3.251-.786,4.851-1.116,1.5-.308,3.042-.627,4.538-1.03A12.741,12.741,0,0,0,59.748,30.7a2.425,2.425,0,0,0,1.063-1.957,2.378,2.378,0,0,0-1.04-1.921,13.36,13.36,0,0,0-3.5-1.59l-.545-.189a4.93,4.93,0,0,0-1.494-.183c-.283-.008-.574-.016-.891-.041a5.178,5.178,0,0,1,3.872-2.56,18.106,18.106,0,0,1,2.977-.277,7.965,7.965,0,0,1,6.889,3.283,1.793,1.793,0,0,0,1.2.468.586.586,0,0,0,.316-.07c3.867-2.573,6.427-5.22,8.057-8.332a.608.608,0,0,0,.022-.309c-.006-.1-.013-.218-.013-.377-.372-.113-.741-.248-1.132-.392a10.148,10.148,0,0,0-2.624-.705c-1.3-.1-2.625-.252-3.9-.4a66.94,66.94,0,0,0-7.386-.55,27.139,27.139,0,0,0-3.5.212c-.45.058-.908.11-1.352.16-2.416.274-4.91.557-7.14,1.951-2.894,1.8-4.438,3.8-5.006,6.454a3.58,3.58,0,0,1-.369.879l-.031.058a.526.526,0,0,1-.231.167c-.065.034-.138.071-.22.122-1.269-1.033-.9-2.4-.566-3.609l.024-.089a10.928,10.928,0,0,1,1.109-2.41c.2-.358.408-.729.6-1.111-1.639.1-2.825,1.229-3.621,3.459a23.506,23.506,0,0,0-.856,3.545c-.117.616-.238,1.253-.387,1.934-1.886-2.148-1.251-4.016-.636-5.823a10.605,10.605,0,0,0,.565-2.129c-2.83,1.654-3.211,4.351-3.614,7.206-.071.5-.144,1.018-.231,1.524a3.029,3.029,0,0,1-1.693-2.722,6.186,6.186,0,0,0-.283-1.21c-3.339,2.106-6.153,6.509-7.341,11.491A23.961,23.961,0,0,0,29.66,52.614c-.213-.213-.435-.423-.651-.627a14.9,14.9,0,0,1-1.369-1.415c-.959-1.181-1.708-1.864-2.7-1.864a5.347,5.347,0,0,0-2.327.763c-.443.227-.871.482-1.368.777-.246.147-.505.3-.79.466A8.917,8.917,0,0,1,22.2,44.991c1.013-1.387,1.526-2.65.739-4.3a3.99,3.99,0,0,1-.261-1.554,8.14,8.14,0,0,0-.066-.883c-.065-.432-.16-.863-.252-1.28-.046-.209-.091-.415-.132-.618-.144.014-.264.018-.361.022-.158.005-.254.009-.278.052C20.769,37.885,19.517,38,18.086,38l-.292,0-.634,0A67.971,67.971,0,0,0,.289,40.142L0,39.776c.414-.407.828-.829,1.228-1.238C2.1,37.648,3,36.729,3.963,35.915A62.634,62.634,0,0,1,22.369,24.868a4.6,4.6,0,0,0,2.573-2.433,25.26,25.26,0,0,1,9.995-10.909,14.661,14.661,0,0,0,1.291-.871c.2-.147.408-.3.623-.446a1.613,1.613,0,0,0-1.264-.575,3.64,3.64,0,0,0-1.748.592l-.062.037A21.894,21.894,0,0,0,32.484.09l.092,0c.438,0,.888-.021,1.323-.042C34.363.023,34.843,0,35.312,0a8.818,8.818,0,0,1,1.617.128,42.165,42.165,0,0,1,16,6.127,9.036,9.036,0,0,0,4.589,1.483,51.247,51.247,0,0,1,21.907,7.026,3.3,3.3,0,0,1,.722.644c.116.125.236.254.368.38-2.8,6.51-7.587,11.41-14.628,14.983-1.7.86-3.456,1.67-5.156,2.452-1.659.764-3.372,1.553-5.027,2.387-.751.378-1.09.683-1.134,1.021-.046.354.226.755.939,1.384a24,24,0,0,1,7.435,11.857,28.764,28.764,0,0,1,.751,5.421c.047.63.1,1.281.157,1.916a2.316,2.316,0,0,1-.473,1.359,12.815,12.815,0,0,0-4.955-5.353c-4.467-3.079-9.83-6.466-15.736-8.234a.26.26,0,0,1-.171-.139c-.113-.237.077-.706.278-1.2.239-.588.485-1.2.274-1.51a.611.611,0,0,0-.547-.211,3.111,3.111,0,0,0-.72.107,6.824,6.824,0,0,0-3.745,2.606,16.77,16.77,0,0,0,1.06,1.439c1.05,1.325,2.136,2.694,1.788,4.708-.4-.2-.771-.4-1.133-.6A13.241,13.241,0,0,0,37.5,49.113a2.532,2.532,0,0,0-.754-.134,1,1,0,0,0-.789.314,1.738,1.738,0,0,0-.25,1.38,8.917,8.917,0,0,0,3.825,6.1,1.875,1.875,0,0,0,1.152.408,4.079,4.079,0,0,0,1.6-.473c.109-.049.217-.1.326-.144a16.93,16.93,0,0,1,6.658-1.431,16.687,16.687,0,0,1,7.605,1.921c.065.034.111.1.2.229.06.085.134.19.244.33a17.748,17.748,0,0,0-11.151,5.093c-3.354,3.339-4.848,7.03-4.569,11.282ZM56.237,10.177c-.092,0-.147.066-.183.221a1.617,1.617,0,0,0,.13.676l.028.084a2.7,2.7,0,0,0,.748,1.217,4.28,4.28,0,0,0,2.633,1.075,1.828,1.828,0,0,0,1.308-.475.831.831,0,0,0,.262-.788.491.491,0,0,0-.04-.113,1.194,1.194,0,0,0-.726-.48L56.627,10.3c-.055-.019-.106-.039-.153-.058A.732.732,0,0,0,56.237,10.177Z" transform="translate(-424.001 8569.001)"></path>
    </g>

</svg>