<svg xmlns="http://www.w3.org/2000/svg" width="1em" height="1em" fill="currentColor" class="" style="width: inherit; height: inherit;" viewBox="0 0 100 76">
    <g transform="translate(434.001 -8439)">
        <rect width="100" height="76" transform="translate(-434.001 8439)" opacity="0"></rect>
        <g transform="translate(-414.082 8448.942)">
            <path d="M-810.636,1229.836a3.193,3.193,0,0,0,1.885-4.1l-15.155-40.922a3.194,3.194,0,0,0-4.1-1.887l-27.116,10.042a3.194,3.194,0,0,0-1.886,4.1l15.156,40.924a3.192,3.192,0,0,0,4.1,1.885Zm-4.346-6.9c1.751,1.04,3.292,1.05,3.736,2.191a1.437,1.437,0,0,1-1.093,2.055,2.938,2.938,0,0,1-1.077-.171,3.663,3.663,0,0,0,1.323,1.094c-.865.315-.866.312-.866.312v0s0,0-.866.312a3.652,3.652,0,0,0,.314-1.685,3.19,3.19,0,0,1-.746.84,1.441,1.441,0,0,1-2.157-.885C-816.8,1225.84-815.661,1224.859-814.982,1222.937Zm-35.175-24.316a2.929,2.929,0,0,1-1.076-.172,3.665,3.665,0,0,0,1.322,1.095c-.864.315-.865.312-.865.312h0s0,0-.865.313a3.652,3.652,0,0,0,.314-1.685,3.233,3.233,0,0,1-.746.84,1.441,1.441,0,0,1-2.157-.885c-.389-1.162.754-2.144,1.433-4.065,1.75,1.04,3.292,1.05,3.736,2.19A1.437,1.437,0,0,1-850.157,1198.621Zm23.2,18.222a10.688,10.688,0,0,1-3.9-.622,13.3,13.3,0,0,0,4.8,3.969c-3.136,1.143-3.14,1.131-3.14,1.131l0,0s0,.012-3.14,1.133a13.256,13.256,0,0,0,1.139-6.11,11.74,11.74,0,0,1-2.706,3.045c-2.018,1.641-6.414,1.006-7.825-3.209s2.732-7.774,5.194-14.739c6.349,3.771,11.94,3.809,13.551,7.943S-824.358,1216.815-826.96,1216.842Z" transform="translate(857.21 -1182.151)"></path>
            <path d="M-801.927,1183.366l-21.978-1.18a6.259,6.259,0,0,1,.849,1.549l6.176,16.675.146-.143c2.388-2.333,6.069-2.519,8.2.058a6.694,6.694,0,0,1-.478,8.891l-.611.6-2.942,2.24,4.668,12.606a6.422,6.422,0,0,1,.383,1.78,1.539,1.539,0,0,1,1.5.568l.144.174.162-.158a1.449,1.449,0,0,1,2.166.015,1.768,1.768,0,0,1-.127,2.35l-.162.158-1.306.995a6.87,6.87,0,0,0-.961.889h0a6.908,6.908,0,0,0-.86-.986l-1.073-1.017c-.017.038-.03.08-.048.118a6.345,6.345,0,0,1-3.586,3.322l-.178.066,7.239.39a3.194,3.194,0,0,0,3.36-3.018l2.341-43.576A3.193,3.193,0,0,0-801.927,1183.366Z" transform="translate(859.354 -1182.186)"></path>
        </g>
    </g>
</svg>