<svg xmlns="http://www.w3.org/2000/svg" width="1em" height="1em" fill="currentColor" class="" viewBox="0 0 26 21.514">
    <g transform="translate(-1767.233 -314.086)">
        <path d="M1789.072,314.086l-3.3,3.3a14.338,14.338,0,0,0-5.53-1.1,13.585,13.585,0,0,0-13.012,8.88l.069.007-.069.007a12.82,12.82,0,0,0,4.592,6.156l-2.855,2.855,1.412,1.412,20.1-20.1Zm-14.792,11.032a5.935,5.935,0,0,1,8.907-5.148l-1.827,1.828a3.507,3.507,0,0,0-4.456,4.456l-1.825,1.825A5.888,5.888,0,0,1,1774.279,325.118Z"></path>
        <path d="M1793.172,339.617a3.516,3.516,0,0,0,3.514-3.515c0-.028,0-.056,0-.084l-3.6,3.6C1793.115,339.613,1793.143,339.617,1793.172,339.617Z" transform="translate(-12.942 -10.978)"></path>
        <path d="M1801.535,330.583a12.792,12.792,0,0,0-3.948-5.668l-3.507,3.507a5.934,5.934,0,0,1-7.668,7.668l-2.594,2.594a14.48,14.48,0,0,0,4.729.794,13.555,13.555,0,0,0,12.988-8.881l-.07-.007Z" transform="translate(-8.302 -5.421)"></path>
    </g>
</svg>