<svg xmlns="http://www.w3.org/2000/svg" width="51.211" height="45.808" viewBox="0 0 51.211 45.808">
  <path id="6744d2edc462109f9cc44a8cf6bfba7b-game_2_style_1_zk" d="M435.08,6315.35h-9.4a1.715,1.715,0,0,1-1.713-1.72v-9.5a5.15,5.15,0,0,0-5.135-5.164h0a5.15,5.15,0,0,0-5.135,5.165v9.5a1.717,1.717,0,0,1-1.711,1.722h-9.4a3.451,3.451,0,0,1-3.442-3.464v-16.46H395.88a2.631,2.631,0,0,1-2.261-1.2,2.572,2.572,0,0,1,.414-3.236l21.027-19.937a5.486,5.486,0,0,1,7.554,0l20.956,19.871a2.655,2.655,0,0,1,.826,2.432,2.552,2.552,0,0,1-2.507,2.071H438.52v16.46a3.449,3.449,0,0,1-3.441,3.466ZM441.292,6293.5Z" transform="translate(-393.226 -6269.548)" fill="#fff"/>
</svg>
