<svg xmlns="http://www.w3.org/2000/svg" width="1em" height="1em" fill="currentColor" class="" viewBox="0 0 30 30">
    <g>
        <path
                d="M7.90039 22.5662C7.78837 22.4721 7.69649 22.3564 7.63025 22.226C7.56401 22.0956 7.52477 21.9531 7.51489 21.8072C7.36489 20.5952 8.3879 18.6697 8.8009 18.1422L15.1464 10.0372L18.0874 12.3372L11.7499 20.4482C11.2822 20.9466 10.7785 21.41 10.2429 21.8347C9.72539 22.3042 9.08277 22.6136 8.39294 22.7252C8.21541 22.7302 8.04149 22.674 7.90039 22.5662ZM14.8039 22.5052C14.4724 22.5052 14.1545 22.3735 13.92 22.1391C13.6856 21.9046 13.5539 21.5867 13.5539 21.2552C13.5539 20.9237 13.6856 20.6057 13.92 20.3713C14.1545 20.1369 14.4724 20.0052 14.8039 20.0052H21.3039C21.6354 20.0052 21.9534 20.1369 22.1878 20.3713C22.4222 20.6057 22.5539 20.9237 22.5539 21.2552C22.5539 21.5867 22.4222 21.9046 22.1878 22.1391C21.9534 22.3735 21.6354 22.5052 21.3039 22.5052H14.8039ZM19.2599 10.8342L16.3209 8.53767L17.8759 6.55117C17.8799 6.54517 18.2969 5.97067 18.8179 6.00117C19.2819 6.13179 19.7096 6.36736 20.0679 6.68967C20.4704 6.97039 20.8088 7.33319 21.0609 7.75417C21.108 7.94271 21.1099 8.13971 21.0665 8.32912C21.023 8.51853 20.9355 8.69501 20.8109 8.84417L19.2579 10.8317L19.2599 10.8342Z"></path>
    </g>
</svg>