<svg xmlns="http://www.w3.org/2000/svg" xmlns:xlink="http://www.w3.org/1999/xlink" width="48" height="48.001" viewBox="0 0 48 48.001">
  <defs>
    <clipPath id="dad441ffa4ca43efe71cb685aeaeee65-clip-path">
      <path id="dad441ffa4ca43efe71cb685aeaeee65-Union_151" d="M-137-2471v-4h4v4Zm-44,0v-4h4v4Zm44-44v-4h4v4Zm-44,0v-4h4v4Z" transform="translate(181 2519)" fill="#fff"/>
    </clipPath>
  </defs>
  <g id="dad441ffa4ca43efe71cb685aeaeee65-input_icon_sj" transform="translate(-1578 -2123)">
    <g id="dad441ffa4ca43efe71cb685aeaeee65-&#x5e95;&#x5c42;" transform="translate(1578 2123)">
      <g id="dad441ffa4ca43efe71cb685aeaeee65-Mask_Group_1" transform="translate(0)" opacity="0" clip-path="url(#dad441ffa4ca43efe71cb685aeaeee65-clip-path)">
        <path id="dad441ffa4ca43efe71cb685aeaeee65-&#x5e95;&#x5c42;-2" d="M2,1A1,1,0,0,0,1,2V46a1,1,0,0,0,1,1H46a1,1,0,0,0,1-1V2a1,1,0,0,0-1-1H2M2,0H46a2,2,0,0,1,2,2V46a2,2,0,0,1-2,2H2a2,2,0,0,1-2-2V2A2,2,0,0,1,2,0Z" transform="translate(0 0)" fill="#fff"/>
      </g>
    </g>
    <path id="dad441ffa4ca43efe71cb685aeaeee65-icon_dl_sj" d="M5634.75,1131.99h-19.2a4.859,4.859,0,0,0-4.8,4.917v38.168a4.858,4.858,0,0,0,4.8,4.915h19.188a4.884,4.884,0,0,0,4.8-4.946v-38.107a4.859,4.859,0,0,0-4.786-4.946Zm-9.6,46.295a2.221,2.221,0,1,1,2.166-2.218,2.188,2.188,0,0,1-2.166,2.233Zm10.435-8.072a1.46,1.46,0,0,1-1.583,1.638h-17.772a1.593,1.593,0,0,1-1.349-1.639v-30.887a1.613,1.613,0,0,1,1.6-1.638h17.5a1.617,1.617,0,0,1,1.6,1.638Z" transform="translate(-4023.75 991.01)" />
  </g>
</svg>
