<svg xmlns="http://www.w3.org/2000/svg" width="1em" height="1em" fill="currentColor" class="" viewBox="0 0 48 48.001">
  <defs>
    <clipPath>
      <path d="M-137-2471v-4h4v4Zm-44,0v-4h4v4Zm44-44v-4h4v4Zm-44,0v-4h4v4Z" transform="translate(181 2519)"></path>
    </clipPath>
  </defs>
  <g transform="translate(-1945 -2123)">
    <g transform="translate(1945 2123)">
      <g transform="translate(0)" opacity="0" clip-path="url(#f86eb0f43087dc61eb1da4b9ff6989e2-clip-path)">
        <path d="M2,1A1,1,0,0,0,1,2V46a1,1,0,0,0,1,1H46a1,1,0,0,0,1-1V2a1,1,0,0,0-1-1H2M2,0H46a2,2,0,0,1,2,2V46a2,2,0,0,1-2,2H2a2,2,0,0,1-2-2V2A2,2,0,0,1,2,0Z" transform="translate(0 0)"></path>
      </g>
    </g>
    <path d="M-4159.993,6471.628c-.354-.2-.7-.4-1.17-.678-.156.2-.316.43-.5.636a1.629,1.629,0,0,1-1.893.311,2.075,2.075,0,0,1-1.332-2.123.772.772,0,0,0-.076-.243c-1.162.959-1.89,1.087-2.82.553a2.539,2.539,0,0,1-1.322-2.865,2.632,2.632,0,0,1-3-.2,2.369,2.369,0,0,1-.954-2.762,4.886,4.886,0,0,0-.516.18,2.546,2.546,0,0,1-2.527-.236,2.55,2.55,0,0,1-1.071-2.3,2.345,2.345,0,0,1,.4-1,13.664,13.664,0,0,1,1.2-1.481c.263-.291.315-.513.04-.82-.432-.491-.82-1-1.244-1.5a.7.7,0,0,1-.086-.843c.142-.284.3-.562.436-.849.156-.321.29-.357.522-.091.542.623,1.085,1.244,1.6,1.887.212.258.368.351.72.182a2.512,2.512,0,0,1,2.023-.008,2.514,2.514,0,0,1,1.375,1.487,4.216,4.216,0,0,1-.068,1.568c-.009.172,0,.348-.009.527a2.456,2.456,0,0,1,.472-.08,5.016,5.016,0,0,1,1.438.129,2.329,2.329,0,0,1,1.446,1.291,4.627,4.627,0,0,1,.216,1.425c.028.4.1.492.456.3a1.867,1.867,0,0,1,1.967.223,2.3,2.3,0,0,1,1.258,2.5,1.227,1.227,0,0,0,.038.316,1.879,1.879,0,0,0,.277-.04,2.3,2.3,0,0,1,2.733,1.717,1.3,1.3,0,0,1-.038.674.4.4,0,0,0-.033.309.4.4,0,0,0,.2.239,1.911,1.911,0,0,0,2.184.188c.611-.4.7-.879.133-1.325-1.017-.8-2.071-1.572-3.1-2.358-.2-.148-.4-.3-.59-.446a.8.8,0,0,1-.355-.522.8.8,0,0,1,.135-.617.759.759,0,0,1,.532-.3.763.763,0,0,1,.586.186c.87.6,1.734,1.2,2.6,1.813l3.4,2.4a1.257,1.257,0,0,0,1.709.06,1.374,1.374,0,0,0,.562-1.566,1.535,1.535,0,0,0-.516-.712c-1-.745-2.018-1.452-3.026-2.181-1.18-.857-2.353-1.722-3.53-2.585a.873.873,0,0,1-.272-1.154.773.773,0,0,1,.507-.338.763.763,0,0,1,.593.136c.87.545,1.716,1.117,2.549,1.705,1.172.828,2.318,1.685,3.483,2.515.708.5,1.42.99,2.152,1.455a1.281,1.281,0,0,0,1.666-.343,1.3,1.3,0,0,0,.342-.959,1.307,1.307,0,0,0-.45-.914c-1.022-.782-2.078-1.52-3.112-2.281s-2.11-1.563-3.175-2.333c-.776-.557-1.578-1.076-2.339-1.648a1.552,1.552,0,0,1-.466-.649.653.653,0,0,1,.047-.643.652.652,0,0,1,.575-.291,2.141,2.141,0,0,1,1.036.359c1.4.973,2.769,1.984,4.151,2.98q2.179,1.575,4.361,3.146a1.691,1.691,0,0,0,1.65.229,1.753,1.753,0,0,0,1.284-1.589,1.773,1.773,0,0,0-.7-1.4c-1.782-1.543-3.544-3.11-5.325-4.657-1.056-.922-2.139-1.816-3.2-2.745-1.4-1.238-2.8-2.459-4.151-3.757a2.9,2.9,0,0,0-2.357-.864,2.9,2.9,0,0,0-2.149,1.295,1.012,1.012,0,0,0-.121.412,5.65,5.65,0,0,1-2.638,4.087,3.8,3.8,0,0,1-3.54.363,1.338,1.338,0,0,1-.895-.768,1.337,1.337,0,0,1,.058-1.177,12.052,12.052,0,0,0,.9-4.3,6.214,6.214,0,0,1,.727-1.917c.05-.107.119-.2.17-.3.265-.494.184-.621-.4-.621-.9,0-1.8,0-2.694.013-.31,0-.356-.119-.218-.373a10.466,10.466,0,0,0,.637-1.221.735.735,0,0,1,.8-.528h1.472c1.076,0,2.151,0,3.227.032a3.3,3.3,0,0,0,1.745-.385,9.943,9.943,0,0,1,4.909-1.059,15.017,15.017,0,0,1,4.069.762,17.675,17.675,0,0,0,4.428.8.67.67,0,0,1,.681.418c.6,1.295,1.221,2.582,1.839,3.871q1.2,2.52,2.419,5.035c.562,1.17,1.114,2.348,1.69,3.51a1.276,1.276,0,0,1-.05,1.238,12.306,12.306,0,0,0-.6,1.3.711.711,0,0,0,.063.553,6.271,6.271,0,0,1,.8,1.853,3.155,3.155,0,0,1-1.989,3.568c-.375.1-.757.187-1.142.252s-.437.332-.445.639a2.669,2.669,0,0,1-1.323,2.343,3.082,3.082,0,0,1-1.695.439c-.662,0-.7.105-.925.739a2.8,2.8,0,0,1-1.353,1.73,2.791,2.791,0,0,1-2.186.222c-.418-.143-.8-.373-1.229-.511a.542.542,0,0,0-.455.139,10.945,10.945,0,0,1-.917,1.026,2.814,2.814,0,0,1-1.764.651A3.489,3.489,0,0,1-4159.993,6471.628Zm18.846-16c-.622-1.413-1.317-2.8-1.989-4.187q-1.395-2.909-2.8-5.81c-.692-1.445-1.376-2.894-2.064-4.339a1.2,1.2,0,0,1-.121-1.125,1.2,1.2,0,0,1,.873-.725c.852-.351,1.674-.776,2.5-1.2a1.109,1.109,0,0,1,.951-.132,1.107,1.107,0,0,1,.7.657c.751,1.576,1.511,3.149,2.261,4.723q1.368,2.862,2.721,5.734,1,2.082,2,4.166a1.977,1.977,0,0,1,.1.506.8.8,0,0,1-.481.815c-1.028.524-2.056,1.054-3.115,1.505a1.441,1.441,0,0,1-.569.128,1.033,1.033,0,0,1-.956-.715Zm-39.417.552c-.88-.431-1.764-.858-2.653-1.264a1.157,1.157,0,0,1-.731-.72,1.149,1.149,0,0,1,.132-1.018c.686-1.332,1.289-2.709,1.941-4.058.28-.573.616-1.115.884-1.69.94-2,1.851-4.026,2.787-6.035.424-.917.876-1.816,1.314-2.723a.822.822,0,0,1,.927-.56l.036-.115c.5.211,1,.409,1.492.639.678.317,1.342.664,2.022,1a1.062,1.062,0,0,1,.549.649,1.063,1.063,0,0,1-.1.846c-.8,1.725-1.652,3.43-2.473,5.15-.658,1.374-1.3,2.762-1.958,4.138-.58,1.2-1.166,2.414-1.746,3.625-.265.542-.5,1.1-.776,1.637a1.144,1.144,0,0,1-1.033.653,1.376,1.376,0,0,1-.595-.167Z" transform="translate(6129.012 -4308.002)"></path>
  </g>
</svg>