<svg xmlns="http://www.w3.org/2000/svg" width="1em" height="1em" fill="currentColor" class="" viewBox="0 0 43.998 44.002">
    <path d="M22141.994,23716v-1H22143v1Zm-42.992,0v-1h.994v1Zm42.992-43v-1H22143v1Zm-42.992,0v-1h.994v1Z" transform="translate(-22099.002 -23671.998)" opacity="0.04"></path>
    <path d="M3381.12,1299.991v-1.8a7.158,7.158,0,0,0-6.7-7.2,7.039,7.039,0,0,0-7.411,6.992v2h-.283a1.726,1.726,0,0,0-1.732,1.719v11.562a1.726,1.726,0,0,0,1.732,1.719H3381.4a1.725,1.725,0,0,0,1.732-1.719V1301.71a1.725,1.725,0,0,0-1.732-1.719Zm-11.758-1.833a4.7,4.7,0,0,1,9.406,0v1.833h-9.406Zm6.212,12.278a.493.493,0,0,1-.126.388.508.508,0,0,1-.376.167h-2.015a.507.507,0,0,1-.376-.167.493.493,0,0,1-.125-.388l.318-2.837a1.971,1.971,0,0,1-.826-1.608,2.016,2.016,0,0,1,4.031,0,1.97,1.97,0,0,1-.824,1.608Z" transform="translate(-3351.994 -1280.989)"></path>
</svg>