<svg xmlns="http://www.w3.org/2000/svg" width="24" height="24" viewBox="0 0 24 24">
  <path id="comm_icon_sqb" d="M1731.583-876.655a12,12,0,0,0-12,12,12,12,0,0,0,12,12,12,12,0,0,0,12-12A12,12,0,0,0,1731.583-876.655Zm4.138,7.09-2.564,2.951h1.464a1.046,1.046,0,0,1,1.046,1.046,1.046,1.046,0,0,1-1.046,1.046h-1.991v1.395h1.991a1.046,1.046,0,0,1,1.046,1.046,1.046,1.046,0,0,1-1.046,1.046h-1.991v1.976a1.046,1.046,0,0,1-1.046,1.046,1.046,1.046,0,0,1-1.046-1.046v-1.976h-1.991a1.046,1.046,0,0,1-1.046-1.046,1.046,1.046,0,0,1,1.046-1.046h1.991v-1.395h-1.991a1.046,1.046,0,0,1-1.046-1.046,1.046,1.046,0,0,1,1.046-1.046h1.464l-2.565-2.951a1.046,1.046,0,0,1,.1-1.476h0a1.046,1.046,0,0,1,1.476.1l2.558,2.943,2.558-2.943a1.046,1.046,0,0,1,1.476-.1h0A1.046,1.046,0,0,1,1735.721-869.565Z" transform="translate(-1719.583 876.655)" fill="#ffaa09"/>
</svg>
