<svg xmlns="http://www.w3.org/2000/svg" width="1em" height="1em" fill="currentColor" class="" viewBox="0 0 48 48">
    <path d="M40.071 7c3.55 0 6.429 2.9 6.429 6.476v21.048C46.5 38.1 43.622 41 40.071 41H7.93c-3.551 0-6.43-2.9-6.43-6.476V13.476C1.5 9.9 4.378 7 7.929 7H40.07ZM11.143 19.952c-2.22 0-4.018 1.813-4.018 4.048 0 2.235 1.799 4.048 4.018 4.048S15.16 26.235 15.16 24c0-2.235-1.8-4.048-4.018-4.048Zm12.857 0c-2.219 0-4.018 1.813-4.018 4.048 0 2.235 1.799 4.048 4.018 4.048s4.018-1.813 4.018-4.048c0-2.235-1.799-4.048-4.018-4.048Zm12.857 0c-2.219 0-4.018 1.813-4.018 4.048 0 2.235 1.8 4.048 4.018 4.048 2.22 0 4.018-1.813 4.018-4.048 0-2.235-1.799-4.048-4.018-4.048Z"></path>
</svg>