<svg xmlns="http://www.w3.org/2000/svg" width="1em" height="1em" fill="currentColor" class="" viewBox="0 0 44 44">
    <g fill="none" stroke-width="1" opacity="0">
        <rect width="44" height="44" stroke="none"></rect>
        <rect x="0.5" y="0.5" width="43" height="43" fill="none"></rect>
    </g>
    <path d="M5.38.46V-12.2L2.16-9.4v-3.08l3.22-2.8H8.24V.46Zm7.98,0V-2.12l5.88-6.84a3.59,3.59,0,0,0,.62-.92,2.472,2.472,0,0,0,.18-.98,2.058,2.058,0,0,0-.48-1.42,1.775,1.775,0,0,0-1.4-.54,2.468,2.468,0,0,0-.7.1,1.743,1.743,0,0,0-.62.33,1.624,1.624,0,0,0-.45.62,2.373,2.373,0,0,0-.17.95H13.36a4.791,4.791,0,0,1,.37-1.93,4.222,4.222,0,0,1,1.01-1.44,4.34,4.34,0,0,1,1.52-.9,5.679,5.679,0,0,1,1.9-.31,5.579,5.579,0,0,1,1.92.32,4.439,4.439,0,0,1,1.51.9,4.071,4.071,0,0,1,.99,1.43,4.853,4.853,0,0,1,.36,1.91,4.128,4.128,0,0,1-.12,1.04,4.261,4.261,0,0,1-.33.87,5.166,5.166,0,0,1-.53.82q-.32.41-.7.87l-4.4,5.12h6.08V.46ZM34.72-4.1a4.938,4.938,0,0,1-.4,2.06A4.235,4.235,0,0,1,33.24-.57,4.343,4.343,0,0,1,31.65.3a6.527,6.527,0,0,1-1.93.28A6.635,6.635,0,0,1,27.85.32,4.568,4.568,0,0,1,26.26-.5a4.036,4.036,0,0,1-1.12-1.44,5.032,5.032,0,0,1-.44-2.1h2.88a2.422,2.422,0,0,0,.19.9,1.875,1.875,0,0,0,.46.64,1.91,1.91,0,0,0,.68.39,2.545,2.545,0,0,0,.81.13,2.11,2.11,0,0,0,1.53-.57,2.162,2.162,0,0,0,.59-1.63,2.192,2.192,0,0,0-.57-1.59,2.162,2.162,0,0,0-1.63-.59h-.42V-8.84h.42a1.843,1.843,0,0,0,1.52-.57,2.173,2.173,0,0,0,.46-1.41,1.878,1.878,0,0,0-.58-1.49,1.969,1.969,0,0,0-1.34-.51,1.947,1.947,0,0,0-1.36.49,1.927,1.927,0,0,0-.58,1.41H24.88a4.6,4.6,0,0,1,.41-1.89,4.293,4.293,0,0,1,1.03-1.4,4.527,4.527,0,0,1,1.51-.88,5.531,5.531,0,0,1,1.87-.31,5.426,5.426,0,0,1,1.92.33,4.594,4.594,0,0,1,1.52.92,4.154,4.154,0,0,1,1,1.42,4.551,4.551,0,0,1,.36,1.83,3.557,3.557,0,0,1-.52,2.04,3.667,3.667,0,0,1-1.3,1.18,4.038,4.038,0,0,1,1.44,1.3A3.911,3.911,0,0,1,34.72-4.1Z" transform="translate(3.836 29.4)"></path>
</svg>