<svg xmlns="http://www.w3.org/2000/svg" xmlns:xlink="http://www.w3.org/1999/xlink" width="36" height="36" viewBox="0 0 36 36">
  <defs>
    <clipPath id="f2a8946e81ffc02bc16084fe19042194-clip-path">
      <rect id="f2a8946e81ffc02bc16084fe19042194-&#x77e9;&#x5f62;_3373" data-name="&#x77e9;&#x5f62; 3373" width="36" height="36" transform="translate(3148 6597)" fill="#fff" opacity="0.47"/>
    </clipPath>
  </defs>
  <g id="f2a8946e81ffc02bc16084fe19042194-style_2_icon_list_dlsb" transform="translate(-3148 -6597)" clip-path="url(#f2a8946e81ffc02bc16084fe19042194-clip-path)">
    <path id="f2a8946e81ffc02bc16084fe19042194-&#x8def;&#x5f84;_15701" data-name="&#x8def;&#x5f84; 15701" d="M6.413,30.009a1.5,1.5,0,1,1,0-3H14.9a1.5,1.5,0,0,1,0,3ZM12,27H9.6V24.6H4.8A4.806,4.806,0,0,1,0,19.8V4.8A4.806,4.806,0,0,1,4.8,0H24.6a4.805,4.805,0,0,1,4.8,4.8,1.5,1.5,0,1,1-3,0A1.8,1.8,0,0,0,24.6,3H4.8A1.8,1.8,0,0,0,3,4.8v15a1.8,1.8,0,0,0,1.8,1.8h9.6a1.5,1.5,0,0,1,0,3H12V27h0Z" transform="translate(3148.6 6600)" fill="#999"/>
  </g>
</svg>
