<svg xmlns="http://www.w3.org/2000/svg" width="40" height="40" viewBox="0 0 40 40">
  <g transform="translate(-1479 -1042)">
    <rect width="40" height="40" transform="translate(1479 1042)" opacity="0"/>
    <g transform="translate(1499.727 1062.257)">
      <path d="M14.18,5.517A8.675,8.675,0,1,1,8.042,8.054,8.635,8.635,0,0,1,14.18,5.517Zm0,14a5.333,5.333,0,1,0-5.35-5.333A5.348,5.348,0,0,0,14.18,19.517Z" transform="translate(-5.497 -5.517)"/>
      <path d="M5.192,9.851a1.661,1.661,0,0,1-1.175-.484L1.376,6.743A1.667,1.667,0,0,1,3.725,4.378L6.367,7A1.667,1.667,0,0,1,5.192,9.851Z" transform="translate(11.241 8.211)"/>
    </g>
  </g>
</svg>
