<svg xmlns="http://www.w3.org/2000/svg" width="40" height="40" viewBox="0 0 40 40">
  <g id="3d1b36b71330186b8be112941d5a4ace-style_2_icon_list_yjfk2" transform="translate(-1823 -1302)">
    <rect id="3d1b36b71330186b8be112941d5a4ace-comomn_icon___60_60" data-name="comomn/icon _ 60*60" width="40" height="40" transform="translate(1823 1302)" opacity="0"/>
    <path id="3d1b36b71330186b8be112941d5a4ace-&#x8def;&#x5f84;_15532" data-name="&#x8def;&#x5f84; 15532" d="M11.636,2.78a1.667,1.667,0,0,1,1.543,1.037L14.763,7.7l4.174.309a1.667,1.667,0,0,1,.954,2.934l-3.2,2.709,1,4.075a1.667,1.667,0,0,1-2.5,1.813L11.636,17.33,8.078,19.537a1.667,1.667,0,0,1-2.5-1.812l1-4.075-3.2-2.709a1.667,1.667,0,0,1,.954-2.934L8.509,7.7l1.584-3.882A1.667,1.667,0,0,1,11.636,2.78Zm2.992,8.251-1.141-.085a1.667,1.667,0,0,1-1.42-1.032l-.431-1.056L11.2,9.914a1.667,1.667,0,0,1-1.42,1.032l-1.142.085.876.742a1.667,1.667,0,0,1,.542,1.668l-.272,1.113.969-.6a1.667,1.667,0,0,1,1.757,0l.968.6-.272-1.112a1.667,1.667,0,0,1,.542-1.668Z" transform="translate(1831.494 1308.731)"/>
  </g>
</svg>
