<svg width="40" height="40" viewBox="0 0 40 40" fill="none" xmlns="http://www.w3.org/2000/svg">
<g id="22f2bffcd8ab14b57d0874878e1cf436-h5/style_2_icon_list_pyq" clip-path="url(#22f2bffcd8ab14b57d0874878e1cf436-clip0_1832_6910)">
<path id="22f2bffcd8ab14b57d0874878e1cf436-Subtract" d="M20.0001 0.666626C30.6776 0.666626 39.3334 9.32245 39.3334 20C39.3334 30.6775 30.6776 39.3333 20.0001 39.3333C9.32258 39.3333 0.666749 30.6775 0.666748 20C0.666748 9.32245 9.32258 0.666626 20.0001 0.666626ZM20.0001 3.99996C18.857 3.99996 17.742 4.1204 16.6667 4.34827V14.1315L13.3334 15.7669V5.45178C9.39356 7.26017 6.31462 10.6211 4.88094 14.7519L13.3334 19.9954V23.8834L19.3334 27.6666L21.0919 26.7864L21.0958 26.7936L10.0092 32.4967C12.7471 34.6884 16.2202 36 20.0001 36C21.1432 36 22.2582 35.8795 23.3334 35.6516V25.666L26.6661 24V16.3333L23.877 14.5716L23.8894 14.5527L35.8621 22.1041C35.9525 21.4155 36.0001 20.7132 36.0001 20C36.0001 16.2947 34.74 12.884 32.6257 10.1718L23.698 14.4583L20.3718 12.3574L30.1746 7.651C27.4093 5.37002 23.8646 3.99996 20.0001 3.99996ZM26.6667 34.5481C30.521 32.779 33.5514 29.5242 35.0235 25.5162L26.6667 20.2461V34.5481ZM4.10229 18.1914C4.0355 18.785 4.00008 19.3884 4.00008 20C4.00008 23.7948 5.32195 27.2805 7.52938 30.0234L16.0815 25.6237L4.10229 18.1914ZM20.1518 16.1608L18.0541 17.1686L18.0522 17.1647L20.1283 16.1464L20.1518 16.1608Z" fill="#999999"/>
</g>
<defs>
<clipPath id="22f2bffcd8ab14b57d0874878e1cf436-clip0_1832_6910">
<rect width="40" height="40" fill="white"/>
</clipPath>
</defs>
</svg>
