<svg xmlns="http://www.w3.org/2000/svg" xmlns:xlink="http://www.w3.org/1999/xlink" width="40" height="40" viewBox="0 0 40 40">
  <defs>
    <clipPath id="51c855d6594c6ef22dad92a048c230e8-clip-path">
      <rect id="51c855d6594c6ef22dad92a048c230e8-&#x77e9;&#x5f62;_3374" data-name="&#x77e9;&#x5f62; 3374" width="40" height="40" transform="translate(0)" fill="#fff" opacity="0.47"/>
    </clipPath>
  </defs>
  <g id="51c855d6594c6ef22dad92a048c230e8-style_2_icon_list_zdwm2" clip-path="url(#51c855d6594c6ef22dad92a048c230e8-clip-path)">
    <path id="51c855d6594c6ef22dad92a048c230e8-&#x8def;&#x5f84;_23082" data-name="&#x8def;&#x5f84; 23082" d="M1.134,16.506a1.133,1.133,0,1,1,0-2.267H2V5.8A1.8,1.8,0,0,1,3.8,4H6.667V1.8A1.8,1.8,0,0,1,8.467,0h6.666a1.8,1.8,0,0,1,1.8,1.8V14.24H17.8a1.133,1.133,0,0,1,0,2.267ZM8.934,14h5.733V2.267H8.934ZM4.267,14h2.4V6.267h-2.4Zm6.67-2.58a1.133,1.133,0,1,1,0-2.266h2a1.133,1.133,0,1,1,0,2.266Zm0-3.967a1.134,1.134,0,0,1,0-2.267h2a1.134,1.134,0,0,1,0,2.267Z" transform="translate(9.533 10.613)" />
  </g>
</svg>
