<svg xmlns="http://www.w3.org/2000/svg" xmlns:xlink="http://www.w3.org/1999/xlink" width="36" height="36" viewBox="0 0 36 36">
  <defs>
    <clipPath id="200996d0eb567043144b383946f6a850-clip-path">
      <rect id="200996d0eb567043144b383946f6a850-&#x77e9;&#x5f62;_3374" data-name="&#x77e9;&#x5f62; 3374" width="36" height="36" transform="translate(3148 6597)" fill="#fff" opacity="0.47"/>
    </clipPath>
  </defs>
  <g id="200996d0eb567043144b383946f6a850-style_2_icon_list_dlsb2" transform="translate(-3148 -6597)" clip-path="url(#200996d0eb567043144b383946f6a850-clip-path)">
    <path id="200996d0eb567043144b383946f6a850-&#x8def;&#x5f84;_15704" data-name="&#x8def;&#x5f84; 15704" d="M4.2,22.8A4.2,4.2,0,0,1,0,18.6V4.2A4.2,4.2,0,0,1,4.2,0h8.4a4.2,4.2,0,0,1,4.2,4.2V18.6a4.2,4.2,0,0,1-4.2,4.2ZM3,4.2V18.6a1.2,1.2,0,0,0,1.2,1.2h8.4a1.2,1.2,0,0,0,1.2-1.2V4.2A1.2,1.2,0,0,0,12.6,3H4.2A1.2,1.2,0,0,0,3,4.2ZM6.413,18a1.2,1.2,0,1,1,0-2.4h3.975a1.2,1.2,0,1,1,0,2.4Z" transform="translate(3166.6 6607.8)"/>
  </g>
</svg>
