<svg xmlns="http://www.w3.org/2000/svg" width="40" height="40" viewBox="0 0 40 40">
  <g id="40000dd97053316d337ca71ff01a9c8b-style_2_icon_list_grbb" transform="translate(-1823 -1042)">
    <rect id="40000dd97053316d337ca71ff01a9c8b-comomn_icon___60_60" data-name="comomn/icon _ 60*60" width="40" height="40" transform="translate(1823 1042)" fill="#999" opacity="0"/>
    <path id="40000dd97053316d337ca71ff01a9c8b-&#x8054;&#x5408;_313" data-name="&#x8054;&#x5408; 313" d="M5.334,36.336A5.34,5.34,0,0,1,0,31V5.334A5.34,5.34,0,0,1,5.334,0h23.01a5.34,5.34,0,0,1,5.334,5.334V31a5.34,5.34,0,0,1-5.334,5.334Zm-2-31V31a2,2,0,0,0,2,2h23.01a2,2,0,0,0,2-2V5.334a2,2,0,0,0-2-2H5.334A2,2,0,0,0,3.334,5.334ZM19.667,27.716V22.025a1.667,1.667,0,0,1,3.333,0v5.691a1.667,1.667,0,0,1-3.333,0Zm-9.334,0V24.169a1.667,1.667,0,0,1,3.334,0v3.546a1.667,1.667,0,0,1-3.334,0Z" transform="translate(1826.334 1044)" fill="#999"/>
  </g>
</svg>
