<svg xmlns="http://www.w3.org/2000/svg" width="40" height="40" viewBox="0 0 40 40">
  <g transform="translate(-1651 -1042)">
    <rect width="40" height="40" transform="translate(1651 1042)" fill="#1974e6" opacity="0"/>
    <path d="M6.342,17.9,2.1,15.411A4.279,4.279,0,0,1,0,11.735V6.75A4.277,4.277,0,0,1,2.1,3.075L6.342.583a4.236,4.236,0,0,1,4.288,0l4.243,2.491a4.28,4.28,0,0,1,2.1,3.676v4.985a4.279,4.279,0,0,1-2.1,3.675L10.631,17.9a4.24,4.24,0,0,1-4.289,0ZM8.03,3.457,3.788,5.948a.93.93,0,0,0-.455.8v4.985a.928.928,0,0,0,.455.8L8.03,15.028a.9.9,0,0,0,.912,0l4.242-2.492a.926.926,0,0,0,.455-.8V6.75a.928.928,0,0,0-.455-.8L8.942,3.457a.9.9,0,0,0-.912,0ZM6.608,9.229a1.965,1.965,0,1,1,1.965,1.965A1.964,1.964,0,0,1,6.608,9.229Z" transform="translate(1673.782 1060.831)"/>
  </g>
</svg>
