<svg xmlns="http://www.w3.org/2000/svg" width="40" height="40" viewBox="0 0 40 40">
  <g id="cdaa2477bd6e47316128e7aed905fba8-style_2_icon_list_yjfk" transform="translate(-1823 -1302)">
    <rect id="cdaa2477bd6e47316128e7aed905fba8-comomn_icon___60_60" data-name="comomn/icon _ 60*60" width="40" height="40" transform="translate(1823 1302)" fill="#999" opacity="0"/>
    <path id="cdaa2477bd6e47316128e7aed905fba8-&#x8def;&#x5f84;_15531" data-name="&#x8def;&#x5f84; 15531" d="M5.992,3.8A2.2,2.2,0,0,0,3.8,6V25.433a2.2,2.2,0,0,0,2.2,2.194l8.251-.017L17.959,31.8l3.685-3.977.147-.194h8.066a2.2,2.2,0,0,0,2.2-2.194V6a2.2,2.2,0,0,0-2.2-2.194H5.992m0-3.333H29.857A5.535,5.535,0,0,1,35.387,6V25.433a5.535,5.535,0,0,1-5.53,5.527H23.279l-2.876,3.1a3.333,3.333,0,0,1-4.938-.053l-2.719-3.064L6,30.96H5.992a5.535,5.535,0,0,1-5.53-5.527V6A5.535,5.535,0,0,1,5.992.469Z" transform="translate(1825.205 1304.864)" fill="#999"/>
  </g>
</svg>
