<svg xmlns="http://www.w3.org/2000/svg" width="40" height="40" viewBox="0 0 40 40">
  <g id="ec9a2528771604cea60c6b56bab81bd3-style_2_icon_list_zhmx" transform="translate(-1307 -1042)">
    <rect id="ec9a2528771604cea60c6b56bab81bd3-comomn_icon___60_60" data-name="comomn/icon _ 60*60" width="40" height="40" transform="translate(1307 1042)" fill="#999" opacity="0"/>
    <g id="ec9a2528771604cea60c6b56bab81bd3-&#x7ec4;_54534" data-name="&#x7ec4; 54534" transform="translate(1309 1044)">
      <path id="ec9a2528771604cea60c6b56bab81bd3-&#x8def;&#x5f84;_15555" data-name="&#x8def;&#x5f84; 15555" d="M17,39.618H8.583A5.589,5.589,0,0,1,3,34.036V8.583A5.589,5.589,0,0,1,8.583,3H30.474a5.589,5.589,0,0,1,5.583,5.583v8.1a1.667,1.667,0,0,1-3.333,0v-8.1a2.252,2.252,0,0,0-2.249-2.249H8.583A2.252,2.252,0,0,0,6.333,8.583V34.036a2.252,2.252,0,0,0,2.249,2.249H17a1.667,1.667,0,1,1,0,3.333Z" transform="translate(-3 -3)" fill="#999"/>
      <path id="ec9a2528771604cea60c6b56bab81bd3-&#x8def;&#x5f84;_15556" data-name="&#x8def;&#x5f84; 15556" d="M17.507,4.333H2.667A1.667,1.667,0,1,1,2.667,1h14.84a1.667,1.667,0,0,1,0,3.333Z" transform="translate(6.015 7.362)" fill="#999"/>
      <path id="ec9a2528771604cea60c6b56bab81bd3-&#x8def;&#x5f84;_15557" data-name="&#x8def;&#x5f84; 15557" d="M9.418,4.333H2.667A1.667,1.667,0,1,1,2.667,1H9.418a1.667,1.667,0,1,1,0,3.333Z" transform="translate(6.015 16.695)" fill="#999"/>
    </g>
  </g>
</svg>
