<svg xmlns="http://www.w3.org/2000/svg" width="40" height="40" viewBox="0 0 40 40">
  <g id="002ca800681bed8d3991bc1678512836-style_2_icon_list_txgl" transform="translate(-1651 -1042)">
    <rect id="002ca800681bed8d3991bc1678512836-comomn_icon___60_60" data-name="comomn/icon _ 60*60" width="40" height="40" transform="translate(1651 1042)" fill="#999" opacity="0"/>
    <g id="002ca800681bed8d3991bc1678512836-&#x7ec4;_54421" data-name="&#x7ec4; 54421" transform="translate(1651.244 1045)">
      <path id="002ca800681bed8d3991bc1678512836-&#x8def;&#x5f84;_15542" data-name="&#x8def;&#x5f84; 15542" d="M24.516,36.445H10.768A5.775,5.775,0,0,1,5,30.677V10.768A5.775,5.775,0,0,1,10.768,5H36.914a5.775,5.775,0,0,1,5.768,5.768v7.076a1.667,1.667,0,0,1-3.333,0V10.768a2.437,2.437,0,0,0-2.435-2.435H10.768a2.437,2.437,0,0,0-2.435,2.435V30.677a2.437,2.437,0,0,0,2.435,2.435H24.516a1.667,1.667,0,1,1,0,3.333Z" transform="translate(-5 -5)" fill="#999"/>
      <path id="002ca800681bed8d3991bc1678512836-&#x8def;&#x5f84;_15543" data-name="&#x8def;&#x5f84; 15543" d="M33.282,5.333H.667A1.667,1.667,0,1,1,.667,2H33.282a1.667,1.667,0,1,1,0,3.333Z" transform="translate(2.734 6.046)" fill="#999"/>
      <path id="002ca800681bed8d3991bc1678512836-&#x8def;&#x5f84;_15545" data-name="&#x8def;&#x5f84; 15545" d="M7.272,5.333H2.851A1.667,1.667,0,0,1,2.851,2H7.272a1.667,1.667,0,1,1,0,3.333Z" transform="translate(5.586 18.773)" fill="#999"/>
    </g>
  </g>
</svg>
