<svg width="40" height="40" viewBox="0 0 40 40" xmlns="http://www.w3.org/2000/svg">
<path fill-rule="evenodd" clip-rule="evenodd" d="M31.7787 19.8291C34.0102 19.1595 35.7063 23.2115 36.4147 25.4021L36.543 25.8135L36.6628 26.2269C37.279 28.445 38.0974 32.7613 35.8666 33.4327C35.1864 33.6369 33.4847 32.9124 32.6341 32.5498C32.3156 32.4216 31.6631 32.2623 30.7012 32.1742L32.3015 35.1788C32.656 35.8445 32.4039 36.6718 31.7383 37.0264C31.0726 37.3809 30.2453 37.1289 29.8907 36.4633L27.6022 32.167C27.2749 32.1908 26.9332 32.2221 26.5775 32.2627L25.8998 32.3487C25.5442 32.3985 24.771 32.5391 24.3353 32.0778L22.9037 27.3161C22.9851 26.8469 23.4119 26.5561 23.7572 26.3747L24.0599 26.2269C27.4326 24.6204 29.1375 22.9713 29.5684 22.3474C30.0783 21.5762 31.0985 20.0336 31.7787 19.8291ZM32.3913 23.0538C32.1978 23.326 32.0111 23.6058 31.847 23.8539L31.8321 23.8767L31.8164 23.8988C31.0766 24.9704 29.1741 26.6788 26.0482 28.2881L26.2357 28.9099L26.4226 29.5329C29.6805 29.1787 32.0996 29.4813 33.3913 29.9183L33.655 30.016L33.6804 30.0258L33.7051 30.0368C33.9788 30.1535 34.289 30.2836 34.6003 30.404C34.6001 30.3431 34.5993 30.2785 34.597 30.2107C34.5572 29.0108 34.2146 27.565 33.9349 26.628L33.8067 26.2165C33.4791 25.2085 32.9734 23.9422 32.3913 23.0538Z"/>
<path d="M23.0762 32.8259L21.6634 33.2504L21.5274 33.2842C20.8933 33.4063 20.2574 33.0635 20.0098 32.4672L19.9629 32.3357L19.1133 29.5101C18.9101 28.8331 19.2575 28.1212 19.8965 27.8558L20.0287 27.809L21.4414 27.3845L23.0762 32.8259Z" />
</svg>
