<svg xmlns="http://www.w3.org/2000/svg" width="40" height="40" viewBox="0 0 40 40">
  <g id="b2e1bd0596d03945b3f2b5f450bb2b47-style_2_icon_list_cjwt2" transform="translate(-1479 -1302)">
    <rect id="b2e1bd0596d03945b3f2b5f450bb2b47-comomn_icon___60_60" data-name="comomn/icon _ 60*60" width="40" height="40" transform="translate(1479 1302)" opacity="0"/>
    <g id="b2e1bd0596d03945b3f2b5f450bb2b47-&#x7ec4;_54414" data-name="&#x7ec4; 54414" transform="translate(1493.333 1311.781)">
      <path id="b2e1bd0596d03945b3f2b5f450bb2b47-&#x8def;&#x5f84;_15527" data-name="&#x8def;&#x5f84; 15527" d="M5.488,14.9A1.667,1.667,0,0,1,3.821,13.23,6.979,6.979,0,0,1,6.506,7.449c.887-.814,1.332-1.223,1.332-2.456A2.547,2.547,0,0,0,5.086,2.335,2.547,2.547,0,0,0,2.333,4.993,1.667,1.667,0,0,1-1,4.993,6.26,6.26,0,0,1-.475,2.421,5.529,5.529,0,0,1,.954.492,6.273,6.273,0,0,1,5.086-1,6.273,6.273,0,0,1,9.218.492a5.529,5.529,0,0,1,1.429,1.929,6.26,6.26,0,0,1,.525,2.572A6.091,6.091,0,0,1,8.761,9.9,3.742,3.742,0,0,0,7.154,13.23,1.667,1.667,0,0,1,5.488,14.9Z" transform="translate(1 0.999)"/>
      <ellipse id="b2e1bd0596d03945b3f2b5f450bb2b47-&#x692d;&#x5706;_337" data-name="&#x692d;&#x5706; 337" cx="1.934" cy="1.934" rx="1.934" ry="1.934" transform="translate(4.568 17.683)"/>
    </g>
  </g>
</svg>
