<svg xmlns="http://www.w3.org/2000/svg" width="40" height="40" viewBox="0 0 40 40">
  <g id="53a614e5d0ee11661821ebb984a22a02-style_2_icon_list_aqzx" transform="translate(-1651 -1172)">
    <rect id="53a614e5d0ee11661821ebb984a22a02-comomn_icon___60_60" data-name="comomn/icon _ 60*60" width="40" height="40" transform="translate(1651 1172)" fill="#999" opacity="0"/>
    <path id="53a614e5d0ee11661821ebb984a22a02-&#x8def;&#x5f84;_15517" data-name="&#x8def;&#x5f84; 15517" d="M14.468-2.406a3.867,3.867,0,0,1,1.477.292L29.022,3.26a3.887,3.887,0,0,1,2.415,3.608V17.306a17.063,17.063,0,0,1-2.317,8.368,16.61,16.61,0,0,1-6.105,6.057L15.7,36.12a2.526,2.526,0,0,1-2.467,0l-.045-.026L5.922,31.732A16.61,16.61,0,0,1-.183,25.675,17.063,17.063,0,0,1-2.5,17.306V6.867A3.885,3.885,0,0,1-.086,3.26L12.991-2.115A3.867,3.867,0,0,1,14.468-2.406ZM28.1,17.273V6.867a.564.564,0,0,0-.349-.525L14.678.968a.556.556,0,0,0-.42,0L1.181,6.343a.563.563,0,0,0-.348.523V17.273a13.526,13.526,0,0,0,6.753,11.57l.035.02,6.847,4.11,6.882-4.13A13.526,13.526,0,0,0,28.1,17.273Z" transform="translate(1656.833 1175.073)" fill="#999"/>
  </g>
</svg>
