<svg xmlns="http://www.w3.org/2000/svg" width="1em" height="1em" fill="currentColor" class="" viewBox="0 0 64 64">
    <g transform="translate(-1687 -618)">
        <rect width="64" height="64" transform="translate(1687 618)" opacity="0"></rect>
        <path d="M0,12.627A12.626,12.626,0,1,1,12.626,25.252,12.641,12.641,0,0,1,0,12.627Zm4,0A8.626,8.626,0,1,0,12.626,4,8.636,8.636,0,0,0,4,12.627Zm8.71,5.782-.079,0a.271.271,0,0,1-.049,0H12.51c-.187,0-.587,0-1.462-.013l-.246,0a.334.334,0,0,1-.225-.576,6.305,6.305,0,0,0,1.258-1.663,6.852,6.852,0,0,1-1.156.468,2.384,2.384,0,0,1-.712.108H9.95a3.157,3.157,0,0,1-2.13-.891,3.209,3.209,0,0,1-.98-2.5c.054-1.581,1.3-2.607,2.748-3.794l.006,0a23.273,23.273,0,0,0,2.8-2.6.333.333,0,0,1,.246-.108h0a.332.332,0,0,1,.247.112A22.915,22.915,0,0,0,15.7,9.6a.014.014,0,0,0,.005,0c1.438,1.2,2.681,2.236,2.71,3.807,0,.022,0,.045,0,.067a3.162,3.162,0,0,1-.885,2.279,3.2,3.2,0,0,1-2.246.99h-.024a2.4,2.4,0,0,1-.737-.117,6.329,6.329,0,0,1-1.064-.454,6.376,6.376,0,0,0,1.231,1.672.334.334,0,0,1-.233.573C13.516,18.418,12.931,18.411,12.71,18.409Z"
              transform="translate(1715.787 620)"></path>
    </g>
</svg>
