<svg xmlns="http://www.w3.org/2000/svg" width="1em" height="1em" fill="currentColor" class="" viewBox="0 0 64 64">
    <g transform="translate(-1240 -618)">
        <rect data-name="comomn/icon _ 60*60" width="64" height="64" transform="translate(1240 618)" opacity="0"></rect>
        <path data-name="联合 307" d="M0,14A14,14,0,1,1,14,28,14,14,0,0,1,0,14Zm4,0A10,10,0,1,0,14,4,10.011,10.011,0,0,0,4,14Zm8.291,5.941v-6.55l-.2.205a2,2,0,1,1-2.834-2.823l3.621-3.635a2,2,0,0,1,2.834,0l3.622,3.635A2,2,0,1,1,16.5,13.6l-.2-.205v6.55a2,2,0,1,1-4,0Z" transform="translate(1274.893 648.325)"></path>
    </g>
</svg>