<svg width="40" height="40" viewBox="0 0 40 40" fill="none" xmlns="http://www.w3.org/2000/svg">
<path fill-rule="evenodd" clip-rule="evenodd" d="M20.0268 2C25.3068 2.00031 29.5873 6.28048 29.5874 11.5605C29.5874 14.8979 27.8768 17.8353 25.2853 19.5456C25.76 19.696 26.2294 19.8661 26.6909 20.0573C26.8956 20.1421 27.0986 20.2318 27.2996 20.3242C27.2351 20.4202 27.1757 20.5095 27.1232 20.5892L27.0763 20.6595C27.0356 20.7069 26.7327 21.0605 26.0158 21.61C25.5593 21.9599 24.9656 22.3631 24.2241 22.791C22.8681 22.3648 21.453 22.1459 20.0268 22.1458C18.1885 22.1458 16.3678 22.5082 14.6694 23.2116C12.971 23.9151 11.427 24.9462 10.1271 26.2461C8.82713 27.5461 7.79614 29.0899 7.09258 30.7884C6.60797 31.9584 6.28614 33.1864 6.1323 34.4381H19.3979C20.0633 34.4381 20.6274 34.4383 21.105 34.4531V34.4381H23.8367C23.8367 34.4381 24.8615 34.78 24.8615 36.1458C24.8614 37.5116 23.8367 37.8529 23.8367 37.8529H5.68568C4.03242 37.8529 2.51754 36.4817 2.67852 34.6335C2.83271 32.865 3.25668 31.1267 3.93829 29.4811C4.81344 27.3686 6.09612 25.4489 7.71303 23.832C9.32995 22.2152 11.2496 20.9324 13.3621 20.0573C13.8236 19.8662 14.2931 19.6959 14.7677 19.5456C12.1762 17.8353 10.4656 14.8979 10.4656 11.5605C10.4657 6.28029 14.7466 2 20.0268 2ZM20.0268 5.41471C16.6324 5.41471 13.8804 8.16612 13.8803 11.5605C13.8803 14.955 16.6323 17.707 20.0268 17.707C23.4211 17.7067 26.1727 14.9548 26.1727 11.5605C26.1726 8.16631 23.421 5.41502 20.0268 5.41471Z" fill="#999999"/>
</svg>
