<svg xmlns="http://www.w3.org/2000/svg" width="40" height="40" viewBox="0 0 40 40">
  <g id="78741cb533c01a80cc22d48901c35e94-style_2_icon_list_vip" transform="translate(-1479 -1172)">
    <rect id="78741cb533c01a80cc22d48901c35e94-comomn_icon___60_60" data-name="comomn/icon _ 60*60" width="40" height="40" transform="translate(1479 1172)" fill="#999" opacity="0"/>
    <path id="78741cb533c01a80cc22d48901c35e94-&#x8def;&#x5f84;_15514" data-name="&#x8def;&#x5f84; 15514" d="M8.814,2.824a2.03,2.03,0,0,0-1.82,1.2L3.058,12.373a2.329,2.329,0,0,0,.368,2.543L17.583,30.341a.957.957,0,0,0,1.438,0L33.178,14.917a2.329,2.329,0,0,0,.368-2.543L29.609,4.028a2.03,2.03,0,0,0-1.82-1.2H8.814m0-3.333H27.789A5.256,5.256,0,0,1,30.7.368a5.477,5.477,0,0,1,1.929,2.238l3.936,8.345a5.661,5.661,0,0,1,.481,3.236,5.572,5.572,0,0,1-1.408,2.983L21.477,32.6A4.333,4.333,0,0,1,18.323,34H18.28a4.334,4.334,0,0,1-3.155-1.407L.97,17.171A5.572,5.572,0,0,1-.438,14.187a5.661,5.661,0,0,1,.481-3.235L3.979,2.606A5.476,5.476,0,0,1,5.908.368,5.256,5.256,0,0,1,8.814-.509Z" transform="translate(1480.831 1175.176)" fill="#999"/>
  </g>
</svg>
