<svg xmlns="http://www.w3.org/2000/svg" xmlns:xlink="http://www.w3.org/1999/xlink" width="40" height="40" viewBox="0 0 40 40">
  <defs>
    <clipPath id="ee738f5e388c1b1e7b3c11635b25c994-clip-path">
      <rect id="ee738f5e388c1b1e7b3c11635b25c994-&#x77e9;&#x5f62;_3373" data-name="&#x77e9;&#x5f62; 3373" width="40" height="40" transform="translate(0)" fill="#fff" opacity="0.47"/>
    </clipPath>
  </defs>
  <g id="ee738f5e388c1b1e7b3c11635b25c994-style_2_icon_list_zdwm" clip-path="url(#ee738f5e388c1b1e7b3c11635b25c994-clip-path)">
    <path id="ee738f5e388c1b1e7b3c11635b25c994-&#x8def;&#x5f84;_21837" data-name="&#x8def;&#x5f84; 21837" d="M34.072,36.8l-5.454-5.361A17.637,17.637,0,0,1,5.165,5.165,17.643,17.643,0,0,1,34.718,22.044a5.851,5.851,0,0,1-.167.6,1.978,1.978,0,0,1-1.731,1.046A1.917,1.917,0,0,1,30.9,21.777a35.954,35.954,0,0,0,.536-4.141,13.8,13.8,0,0,0-27.6,0,13.8,13.8,0,0,0,23.492,9.83l.011.009a1.917,1.917,0,0,1,2.7-.016l6.72,6.606A1.917,1.917,0,1,1,34.072,36.8Z" transform="translate(1.333 1.326)" fill="#999"/>
  </g>
</svg>
