<svg xmlns="http://www.w3.org/2000/svg" width="40" height="40" viewBox="0 0 40 40">
  <g id="edfbf3a6f6db4c0b0fbc59611819dd45-style_2_icon_list_tzjl" transform="translate(-1479 -1042)">
    <rect id="edfbf3a6f6db4c0b0fbc59611819dd45-comomn_icon___60_60" data-name="comomn/icon _ 60*60" width="40" height="40" transform="translate(1479 1042)" fill="#999" opacity="0"/>
    <g id="edfbf3a6f6db4c0b0fbc59611819dd45-&#x7ec4;_54402" data-name="&#x7ec4; 54402" transform="translate(1480 1044)">
      <path id="edfbf3a6f6db4c0b0fbc59611819dd45-&#x8def;&#x5f84;_15549" data-name="&#x8def;&#x5f84; 15549" d="M7.335,2.5H31.942a4.607,4.607,0,0,1,4.6,4.6v4.4a4.607,4.607,0,0,1-4.6,4.6H7.335a4.607,4.607,0,0,1-4.6-4.6V7.1A4.607,4.607,0,0,1,7.335,2.5ZM31.942,12.773A1.27,1.27,0,0,0,33.21,11.5V7.1a1.27,1.27,0,0,0-1.268-1.268H7.335A1.27,1.27,0,0,0,6.066,7.1v4.4a1.27,1.27,0,0,0,1.268,1.268Z" transform="translate(-2.733 -2.5)" fill="#999"/>
      <path id="edfbf3a6f6db4c0b0fbc59611819dd45-&#x8def;&#x5f84;_15551" data-name="&#x8def;&#x5f84; 15551" d="M19.415,16.106H7.858a5.435,5.435,0,0,1-3.524-1.256,4.411,4.411,0,0,1-1.6-3.346V7.1a4.411,4.411,0,0,1,1.6-3.346A5.435,5.435,0,0,1,7.858,2.5H19.045a1.667,1.667,0,0,1,0,3.333H7.858A2.133,2.133,0,0,0,6.491,6.3a1.1,1.1,0,0,0-.425.8v4.4a1.1,1.1,0,0,0,.425.8,2.132,2.132,0,0,0,1.367.464H19.415a1.667,1.667,0,0,1,0,3.333Z" transform="translate(-2.733 18.046)" fill="#999"/>
      <path id="edfbf3a6f6db4c0b0fbc59611819dd45-&#x8def;&#x5f84;_15554" data-name="&#x8def;&#x5f84; 15554" d="M16.278,16.106H7.335a4.607,4.607,0,0,1-4.6-4.6V7.1a4.607,4.607,0,0,1,4.6-4.6H31.942a4.607,4.607,0,0,1,4.6,4.6,1.667,1.667,0,0,1-3.333,0,1.27,1.27,0,0,0-1.268-1.268H7.335A1.27,1.27,0,0,0,6.066,7.1v4.4a1.27,1.27,0,0,0,1.268,1.268h8.943a1.667,1.667,0,1,1,0,3.333Z" transform="translate(-2.733 7.773)" fill="#999"/>
    </g>
  </g>
</svg>
