<svg xmlns="http://www.w3.org/2000/svg" width="1em" height="1em" fill="currentColor" class="" viewBox="0 0 64 64">
<g transform="translate(-1687 -618)">
    <rect width="64" height="64" transform="translate(1687 618)" opacity="0"></rect>
    <path d="M33.784,44.212v-.16a33.133,33.133,0,0,1-3.509.185q-1.154,0-2.31-.08l-.748,1.623a4.139,4.139,0,0,1-3.747,2.343h-5.34a4.03,4.03,0,0,1-4.085-3.915V39.8a22.45,22.45,0,0,1-8.81-9.876L2.075,28.369A3.641,3.641,0,0,1,0,25.109V18.848a3.769,3.769,0,0,1,1.174-2.67,3.731,3.731,0,0,1,2.674-1.016l1.58.005A21.109,21.109,0,0,1,10.086,8.78L8.394,5.509a3.672,3.672,0,0,1,.117-3.528A3.731,3.731,0,0,1,11.405.18a23.074,23.074,0,0,1,12.77,2.158A2,2,0,0,1,22.3,5.873,19.385,19.385,0,0,0,11.87,4.152l2.492,4.189a2,2,0,0,1-.528,2.481A17.109,17.109,0,0,0,8.6,17.905a2,2,0,0,1-1.868,1.267l-2.945-.011L4,25.085,7.66,26.662a2,2,0,0,1,.963,1.028,18.44,18.44,0,0,0,8.361,9.182,2,2,0,0,1,1.06,1.766v5.517l5.443-.032L24.926,41.2a2,2,0,0,1,2.047-1.149,28.311,28.311,0,0,0,3.3.189,28.952,28.952,0,0,0,5.155-.458,2,2,0,0,1,2.354,1.969v2.411l5.42-.032L45.018,41.1a123.768,123.768,0,0,0,6.387-12.147,15.058,15.058,0,0,0,.914-2.931,2,2,0,0,1,1.959-1.6c1.2,0,1.9-.686,1.9-1.53a1.541,1.541,0,0,0-1.548-1.53A2.264,2.264,0,0,1,52.4,19.641,13.052,13.052,0,0,0,50.753,14.9a2,2,0,1,1,3.461-2.006,17.138,17.138,0,0,1,1.873,4.7,5.5,5.5,0,0,1-.205,10.684,18.8,18.8,0,0,1-.8,2.258,126.725,126.725,0,0,1-6.591,12.551l-1.7,2.981a4.127,4.127,0,0,1-3.6,2.057h-5.4A4.033,4.033,0,0,1,33.784,44.212ZM16.864,16.959a2.667,2.667,0,1,1,2.666,2.667A2.666,2.666,0,0,1,16.864,16.959Z" transform="translate(1689 627.965)"></path>
</g>
</svg>