<svg xmlns="http://www.w3.org/2000/svg" width="1em" height="1em" fill="currentColor" class="" viewBox="0 0 40 40">
    <g transform="translate(-97 -911)">
        <rect width="40" height="40" transform="translate(97 911)" opacity="0"></rect>
        <path d="M34.681,37.456,29.13,32A17.952,17.952,0,0,1,5.258,5.258a17.958,17.958,0,0,1,30.08,17.18,5.955,5.955,0,0,1-.17.615,2.013,2.013,0,0,1-1.762,1.064,1.951,1.951,0,0,1-1.951-1.951A36.6,36.6,0,0,0,32,17.951a14.049,14.049,0,0,0-28.1,0A14.049,14.049,0,0,0,27.814,27.956l.011.01a1.952,1.952,0,0,1,2.753-.017l6.84,6.724a1.951,1.951,0,1,1-2.736,2.783Z" transform="translate(98 911.992)"></path>
    </g>
</svg>