<svg xmlns="http://www.w3.org/2000/svg" width="1em" height="1em" fill="currentColor" class="" viewBox="0 0 40 40">
    <g transform="translate(-97 -911)">
        <rect width="40" height="40" transform="translate(97 911)" opacity="0"></rect>
        <path d="M2.35,13.389C.886,12.8.053,12.023,0,11.187H0V9.5a6.863,6.863,0,0,0,1.821,1.053,16.3,16.3,0,0,0,5.984,1.026,16.307,16.307,0,0,0,5.984-1.026A6.861,6.861,0,0,0,15.608,9.5v1.546c0,.021,0,.044,0,.065s0,.043,0,.064v.015c-.051.835-.884,1.618-2.349,2.2a15.172,15.172,0,0,1-5.454.909A15.173,15.173,0,0,1,2.35,13.389Zm0-3.956C.886,8.847.053,8.066,0,7.231H0V5.539A6.884,6.884,0,0,0,1.821,6.592,16.318,16.318,0,0,0,7.805,7.618a16.324,16.324,0,0,0,5.984-1.026,6.9,6.9,0,0,0,1.819-1.052V7.087c0,.021,0,.044,0,.065s0,.043,0,.064v.015c-.051.835-.884,1.617-2.349,2.2a15.189,15.189,0,0,1-5.454.909A15.191,15.191,0,0,1,2.35,9.433ZM0,3.19C0,1.428,3.5,0,7.805,0s7.8,1.428,7.8,3.19-3.494,3.19-7.8,3.19S0,4.951,0,3.19Z" transform="translate(108.146 922.794)"></path>
    </g>
</svg>