<svg xmlns="http://www.w3.org/2000/svg" width="40" height="40" viewBox="0 0 40 40">
  <g transform="translate(-1307 -1042)">
    <rect width="40" height="40" transform="translate(1307 1042)" fill="#1974e6" opacity="0"/>
    <path d="M9.513,3.234A27.017,27.017,0,0,1,6.248,6.255c-1.654,1.359-2.96,2.432-3.014,4.075a3.309,3.309,0,0,0,1.008,2.58,3.252,3.252,0,0,0,2.188.914,2.378,2.378,0,0,0,.717-.107A7.477,7.477,0,0,0,9.4,12.591a7.613,7.613,0,0,1-2,3.143c1.194.012,1.724.018,1.955.018h.135l0,0c.046,0,.773.012,2.1.018a7.668,7.668,0,0,1-1.966-3.191,6.84,6.84,0,0,0,2.16,1.154,2.342,2.342,0,0,0,.745.115,3.291,3.291,0,0,0,3.22-3.361c0-.024,0-.049,0-.073-.029-1.627-1.326-2.712-2.974-4.086a26.6,26.6,0,0,1-3.266-3.1m0-3.333h.025A3.333,3.333,0,0,1,12,1.019a23.337,23.337,0,0,0,2.857,2.71l.054.044a18.685,18.685,0,0,1,2.529,2.385,6.7,6.7,0,0,1,1.642,4.161c0,.033,0,.066,0,.1a6.631,6.631,0,0,1-4.31,6.354q-.042.133-.1.264a3.333,3.333,0,0,1-3.1,2.072c-1.1,0-1.777-.014-2.034-.017H9.477q-.075,0-.149,0c-.237,0-.675,0-1.676-.015l-.283,0A3.333,3.333,0,0,1,4.3,16.949q-.038-.1-.069-.194A6.643,6.643,0,0,1-.1,10.175,6.766,6.766,0,0,1,1.588,6.043,18.711,18.711,0,0,1,4.132,3.68l.061-.049A23.753,23.753,0,0,0,7.056.982,3.333,3.333,0,0,1,9.513-.1Z" transform="translate(1325.967 1061.784)"/>
  </g>
</svg>
