<svg xmlns="http://www.w3.org/2000/svg" width="1em" height="1em" fill="currentColor" class="" viewBox="0 0 40 40">
    <g transform="translate(-930 -345)">
        <rect width="40" height="40" transform="translate(930 345)" opacity="0"></rect>
        <path d="M4.765,3.583A2.084,2.084,0,0,0,2.833,5.792v19.6A2.084,2.084,0,0,0,4.765,27.6H30.844a2.084,2.084,0,0,0,1.932-2.208V5.792a2.084,2.084,0,0,0-1.932-2.208H4.765m0-3.333H30.844a5.162,5.162,0,0,1,3.875,1.785,5.694,5.694,0,0,1,1.39,3.756v19.6a5.694,5.694,0,0,1-1.39,3.756,5.162,5.162,0,0,1-3.875,1.785H4.765A5.162,5.162,0,0,1,.89,29.145,5.694,5.694,0,0,1-.5,25.389V5.792A5.694,5.694,0,0,1,.89,2.035,5.162,5.162,0,0,1,4.765.25Z" transform="translate(932.5 349.417)"></path>
    </g>
</svg>