<svg xmlns="http://www.w3.org/2000/svg" width="1em" height="1em" fill="currentColor" class="" viewBox="0 0 40 40">
    <g transform="translate(-700 -189)">
        <rect width="40" height="40" transform="translate(700 189)" opacity="0"></rect>
        <path d="M19.26,33.782a1.667,1.667,0,1,1,0-3.333h5.016l2.544-6A4.168,4.168,0,0,1,24.8,23a4.694,4.694,0,0,1-.938-2.832V16.81a4.692,4.692,0,0,1,.938-2.832,4.174,4.174,0,0,1,1.958-1.432A10.143,10.143,0,0,0,16.522,3.333a10.144,10.144,0,0,0-10.24,9.213,4.172,4.172,0,0,1,1.958,1.432,4.691,4.691,0,0,1,.938,2.832v3.36A4.692,4.692,0,0,1,8.239,23a4.1,4.1,0,0,1-3.272,1.651H4.209A4.1,4.1,0,0,1,.938,23,4.692,4.692,0,0,1,0,20.17V16.81a4.7,4.7,0,0,1,.937-2.832,4.17,4.17,0,0,1,2.005-1.447A12.867,12.867,0,0,1,4,8.081,13.2,13.2,0,0,1,6.922,3.867a13.547,13.547,0,0,1,4.321-2.831,13.958,13.958,0,0,1,10.556,0,13.553,13.553,0,0,1,4.32,2.831,13.194,13.194,0,0,1,2.924,4.214,12.872,12.872,0,0,1,1.056,4.45,4.168,4.168,0,0,1,2,1.447,4.7,4.7,0,0,1,.937,2.832v3.36A4.694,4.694,0,0,1,32.1,23a4.209,4.209,0,0,1-1.594,1.286l-3.6,8.478a1.666,1.666,0,0,1-1.534,1.016ZM27.2,16.81v3.36a1.042,1.042,0,0,0,.877,1.15h.758a1.041,1.041,0,0,0,.876-1.15V16.81a1.041,1.041,0,0,0-.876-1.15h-.758A1.042,1.042,0,0,0,27.2,16.81Zm-23.865,0v3.36a1.041,1.041,0,0,0,.876,1.15h.759a1.042,1.042,0,0,0,.876-1.15V16.81a1.042,1.042,0,0,0-.876-1.15H4.209A1.041,1.041,0,0,0,3.333,16.81Z" transform="translate(703.333 190.334)"></path>
    </g>

</svg>