<svg width="40" height="40" viewBox="0 0 40 40" fill="none" xmlns="http://www.w3.org/2000/svg">
<path d="M1.9 20C1.85497 15.1543 3.73655 10.4892 7.13089 7.0307C10.5252 3.57222 15.1543 1.60365 20 1.55798C24.8457 1.60365 29.4748 3.57222 32.8691 7.0307C36.2634 10.4892 38.145 15.1543 38.1 20C38.145 24.8457 36.2634 29.5108 32.8691 32.9693C29.4748 36.4277 24.8457 38.3963 20 38.442C15.1543 38.3963 10.5252 36.4277 7.13089 32.9693C3.73655 29.5108 1.85497 24.8457 1.9 20ZM23.8 34.527C26.3192 33.8432 28.6091 32.4964 30.431 30.627C32.8032 28.2147 34.2922 25.0726 34.657 21.709H28.657C28.3332 26.3659 26.6438 30.824 23.8 34.526V34.527ZM9.574 30.627C11.3959 32.4964 13.6858 33.8432 16.205 34.527C13.3607 30.8246 11.6712 26.3656 11.348 21.708H5.348C5.71245 25.071 7.20068 28.2127 9.572 30.625L9.574 30.627ZM20 33.801C23.0644 30.4732 24.9276 26.216 25.293 21.707H14.708C15.0731 26.2159 16.936 30.4731 20 33.801ZM34.654 18.292C34.2892 14.9284 32.8002 11.7863 30.428 9.37398C28.6061 7.50457 26.3162 6.15781 23.797 5.47398C26.6416 9.17636 28.3313 13.6353 28.655 18.293L34.654 18.292ZM25.292 18.292C24.9266 13.7834 23.0638 9.52665 20 6.19898C16.9356 9.52677 15.0724 13.784 14.707 18.293L25.292 18.292ZM11.344 18.292C11.667 13.6344 13.356 9.17553 16.2 5.47298C13.6808 6.15681 11.3909 7.50357 9.569 9.37298C7.19675 11.7853 5.70778 14.9274 5.343 18.291L11.344 18.292Z" fill="#1678FF"/>
</svg>
