<svg id="4a5f1a62ff956043b18a67fcf4f6ede1-style_1_icon_top_xx" xmlns="http://www.w3.org/2000/svg" width="40" height="40" viewBox="0 0 40 40">
  <rect id="4a5f1a62ff956043b18a67fcf4f6ede1-comomn_m_icon___60_60" data-name="comomn / m icon _ 60*60" width="40" height="40" fill="#1777ff" opacity="0"/>
  <path id="4a5f1a62ff956043b18a67fcf4f6ede1-&#x8def;&#x5f84;_16899" data-name="&#x8def;&#x5f84; 16899" d="M15.334,30.667A15.333,15.333,0,0,1,4.491,4.491,15.333,15.333,0,0,1,30.667,15.334a15.193,15.193,0,0,1-3.128,9.282c.692,1.029,1.754,2.938,1.092,4.144a1.289,1.289,0,0,1-1.237.612,8.926,8.926,0,0,1-3.6-1.247A15.263,15.263,0,0,1,15.334,30.667Zm7.893-18a2.76,2.76,0,1,0,2.76,2.76A2.763,2.763,0,0,0,23.227,12.667Zm-7.893,0a2.76,2.76,0,1,0,2.76,2.76A2.763,2.763,0,0,0,15.334,12.667Zm-7.907,0a2.76,2.76,0,1,0,2.76,2.76A2.763,2.763,0,0,0,7.427,12.667Z" transform="translate(4.667 4.667)" fill="#1777ff"/>
</svg>
