<svg xmlns="http://www.w3.org/2000/svg" width="100" height="76" viewBox="0 0 100 76">
  <g id="a715daff689e7d3f36dcc1bf3a611c4e-icon_dtfl_qp_0" transform="translate(16196 13381)">
    <rect id="a715daff689e7d3f36dcc1bf3a611c4e-r" width="100" height="76" transform="translate(-16196 -13381)" fill="#b1b3bc" opacity="0"/>
    <path id="a715daff689e7d3f36dcc1bf3a611c4e-icon_dtfl_qp_0-2" data-name="icon_dtfl_qp_0" d="M19.214,44.515l.307-5.581a5,5,0,0,1-.858.422,4.937,4.937,0,0,1-6.493-2.891,4.736,4.736,0,0,1,.066-3.8,4.878,4.878,0,0,1,1.16-1.58A5.052,5.052,0,0,1,15.1,30.066a5.494,5.494,0,0,1,2.223-.221s.135,0,.146-.1a.168.168,0,0,0-.035-.13.177.177,0,0,0-.1-.064,5,5,0,0,1-1.653-1.105A4.822,4.822,0,0,1,14.608,26.8a4.878,4.878,0,0,1,.069-3.852,5.019,5.019,0,0,1,1.158-1.611,5.163,5.163,0,0,1,4.73-1.227L21.217,8.48.864,15.947a1.326,1.326,0,0,0-.745.681,1.264,1.264,0,0,0-.033.992L14.131,53.926a1.284,1.284,0,0,0,.274.431,1.326,1.326,0,0,0,.424.3,1.37,1.37,0,0,0,1.023.031L31.52,48.927l-8.672-.455A3.916,3.916,0,0,1,20.2,47.225a3.682,3.682,0,0,1-.977-2.7Zm68.305-30.3L57.316.147a1.589,1.589,0,0,0-1.18-.062,1.547,1.547,0,0,0-.519.3,1.5,1.5,0,0,0-.365.473L35.308,41.441a1.47,1.47,0,0,0-.062,1.154,1.529,1.529,0,0,0,.8.86l30.2,14.089a1.591,1.591,0,0,0,1.185.06,1.558,1.558,0,0,0,.519-.3,1.505,1.505,0,0,0,.36-.471L88.242,16.25a1.47,1.47,0,0,0,.075-1.163,1.5,1.5,0,0,0-.309-.513,1.547,1.547,0,0,0-.491-.356ZM55.42,40.533l-4.2-1.989a17.29,17.29,0,0,0,7.36-4.325,16.372,16.372,0,0,0,1.056,8.308c-4.215-1.952-4.2-1.967-4.2-1.967Zm16.841-5.689A6.586,6.586,0,0,1,62.15,37.458a8.8,8.8,0,0,1-2.164-6.091V31.4a9.349,9.349,0,0,1-6.257,2.113A6.3,6.3,0,0,1,49.6,24.136c2.475-4.641,9.371-3.912,17.709-7.426C69.635,25.267,74.5,30.1,72.27,34.844ZM33.127,40.424l3.264-6.644-6.08-6.091-.608-.712a7.183,7.183,0,0,1,.517-9.74,6.268,6.268,0,0,1,9.167.884l.6.712.685-.65a7.072,7.072,0,0,1,4.338-1.967L51.433,3.138,25.442,1.767a1.476,1.476,0,0,0-.555.077,1.443,1.443,0,0,0-.482.278,1.4,1.4,0,0,0-.336.442,1.357,1.357,0,0,0-.137.526L21.659,44.643a1.368,1.368,0,0,0,.362,1.006,1.456,1.456,0,0,0,.99.462l14.808.782L35.01,45.581a3.921,3.921,0,0,1-2.042-2.21,3.768,3.768,0,0,1,.157-2.957Z" transform="translate(-16190 -13372.001)" fill="#b1b3bc"/>
  </g>
</svg>
