<svg xmlns="http://www.w3.org/2000/svg" width="100" height="76" viewBox="0 0 100 76">
  <g id="26327c91d47beac412485d391bcf35a0-icon_dtfl_zr_0" transform="translate(15541 13381)">
    <rect id="26327c91d47beac412485d391bcf35a0-r" width="100" height="76" transform="translate(-15541 -13381)" fill="#b1b3bc" opacity="0"/>
    <path id="26327c91d47beac412485d391bcf35a0-icon_dtfl_zr_0-2" data-name="icon_dtfl_zr_0" d="M43.981,21.568c-.044-3.793-2.769-6.281-4.528-8.555l-2.175-2c-1.651-3.006,2.7-7.4,4.347-8.193,2.305.442,3.823,2.707,5.083,4.279A23.8,23.8,0,0,1,50.6,12.738c1.3,3.156,1.784,6.8,2.809,10.2L55.2,27.12a7.106,7.106,0,0,1-1.45,4.1c-.252.3-.663.192-.816.637-.948,2.911-.933,6.758-2.809,8.739A12.7,12.7,0,0,0,57.1,50.967c1.956.7,4.1.126,5.888.727a13,13,0,0,1,6.8,6.648c.663,1.3,3.5,10.46,1,11.742-2.047-1.025-1.211-5.147-1.722-7.735-.48-2.732-2.886-7.514-5.083-8.465a9.439,9.439,0,0,0-4.075-.274c-.866.137-1.7-.124-2.265.274l-.816,1.547L55.467,58.07c-.3,3.823-.6,7.682-.906,11.468l-.544.455L49.4,69.538H40.9l-.272-.181c.464-1.439,3.737-1.85,4.982-2.548A16.713,16.713,0,0,0,53.4,57.237c.316-.853,1.459-2.265,1.269-3.185l-.181-.455c-5.039-1.342-7.612.866-10.96-2.913-.287-.4-.942-.464-1.178-1-.9-2.031.057-5.22-.544-7.645l-.544.181c-1.105,2.4-5.746,6.511-9.784,4.825-2.144-.9-4.17-3.26-6.16-3.914l-.091.091c.024,5.262.234,10.805-2.356,13.654a20.461,20.461,0,0,1-2.265,2.367c-1.326,1.021-3.028,1.308-3.8,2.913a4.663,4.663,0,0,0-.634,2.639c.2.869,3.233,3.291,4.528,3,1.768-.393,2.276-2.265,3.622-3.094l.272.181C27.072,75.377,1.72,75.9.047,66.714a7.161,7.161,0,0,1,3.622-6.553c1.189-.663,2.515-.74,3.713-1.456a9.534,9.534,0,0,0,3.355-5.735c.844-4.144-.972-6.767-1.722-9.375l-.442-4c-.221-.981-1.065-1.861-.816-3.187.418-2.21,3.773-5.331,4.8-8.009,1.22-3.138.506-7.711,1.547-11.013A25.33,25.33,0,0,1,24.522,3.363C28.411.521,35.229-2.06,39.2,2.453a21.721,21.721,0,0,1-4.257,8.193c-1.326.663-3.859-.024-5.344.546a14.556,14.556,0,0,0-6.9,9.831l.272.181,1.722-.091a14.259,14.259,0,0,1,5.344,1.456v.455c-.864,1.065-6.829-2.382-8.244.455a.782.782,0,0,0-.091.637l.091.365c3.247-.128,5.843-.946,7.514,1.456l-.091.455H27.943c-.312.749-.517,1.423-1.269,1.728-1.781.541-2.21-.738-2.718-1.821h-.091c-.818.221-.192.663,0,1.182l-.272.181c-1.065.455-1.563-.484-2.265-.727v.181C19.681,31.007,22.4,38,23.956,40.042a25.2,25.2,0,0,0,4.982,4c1.211.864,3.377,2.765,5.616,2.367,1.808-.32,3.41-2.418,4.438-3.64,3.784-4.5,6.575-8.759,5.888-16.748h-.272c-.8.716-1.286,2-2.809,1.638l-.091-.181.442-1-.161-.186-.544.181a1.932,1.932,0,0,1-2.99,1.456l-.906-1.547a2.055,2.055,0,0,1-1.269-.091v-.442c1.989-2.431,5.083-1.547,8.425-1.092v-.19c.221-.588-.261-1.326-.544-1.731a14.467,14.467,0,0,0-4.891-.455c-1.167.241-2.27,1.167-3.536,1l-.091-.274c-.15-.407,0-.535.181-.82A18.291,18.291,0,0,1,43.981,21.568Zm3.081,4.825a11.862,11.862,0,0,0-1.178,5.826c2.257.97,3.171-1.4,3.894-3.278-.484-1.076-1.529-1.7-2.265-2.548ZM33.747,34.128l1.547.091a.709.709,0,0,1-.091.637c-1.275.442-3.536,1.224-4.438-.274l.181-.272a5.932,5.932,0,0,0,2.8-.181Zm13.04.82a40.644,40.644,0,0,0,.091,11.833l.362-.181c.221-3.118.972-8.449,0-11.468ZM33.923,37.587l3.8.365c-.239.793-1.01,1.129-1.631,1.547-3,2.02-2.794,1.523-5.616,0-.884-.473-1.834-.557-2.447-1.275.119-.349,0-.19.272-.365,1.388-.493,4.367.491,5.62-.272ZM4.668,61.8C2.217,63.748.533,66.612,4.034,68.99c.329-.06.3-.038.442-.181-1.136-2.6.015-4.478.362-6.644C4.9,61.809,4.958,61.966,4.668,61.8Z" transform="translate(-15527.04 -13380.004)" fill="#b1b3bc" fill-rule="evenodd"/>
  </g>
</svg>
