<svg xmlns="http://www.w3.org/2000/svg" width="100" height="76" viewBox="0 0 100 76">
  <g id="a621301c56bf2e470db14fb37d948c96-icon_dtfl_dianjing_0" transform="translate(16991 13381)">
    <rect id="a621301c56bf2e470db14fb37d948c96-r" width="100" height="76" transform="translate(-16991 -13381)" fill="#b1b3bc" opacity="0"/>
    <path id="a621301c56bf2e470db14fb37d948c96-icon_dtfl_dianjing_0-2" data-name="icon_dtfl_dianjing_0" d="M54.315,43.8a13.057,13.057,0,0,1-5.437-6.316,18.98,18.98,0,0,1-.964-7.2H59.646a5.881,5.881,0,0,0,1.253,4.31,7.514,7.514,0,0,0,5.967,2.133,24.563,24.563,0,0,0,5.589-.756c2.842-.97,4.42-2.453,4.325-4.067-.091-1.547-1.686-2.908-3.978-3.4-.442-.1-1.149-.2-1.971-.325-3.667-.553-10.482-1.582-15.077-4.38l8.4-8.535H54.81L61.425,4.934h-4.4A22.452,22.452,0,0,1,69.591.072C70.416.028,71.225,0,72,0a27.253,27.253,0,0,1,9.346,1.448,13.519,13.519,0,0,1,6.741,5.021,14.386,14.386,0,0,1,2.489,7.11H78.841a4.482,4.482,0,0,0-1.191-3.315,6.1,6.1,0,0,0-4.52-1.518,15.106,15.106,0,0,0-2.462.221c-3.72.643-6.531,2.31-6.838,4.053-.155.884.365,1.7,1.505,2.345a36.83,36.83,0,0,0,7.276,2.345h.011c4.9,1.284,10.456,2.738,13.331,5.121a8.476,8.476,0,0,1,3.79,6.851,12.377,12.377,0,0,1-1.629,6.155,16.883,16.883,0,0,1-4.3,5.121,26.079,26.079,0,0,1-7.231,3.978,28.444,28.444,0,0,1-9.769,1.731,29.253,29.253,0,0,1-12.5-2.873ZM26.643,45.719H10.73L0,.934H14.065l6.29,34.053L39.6.934,52.927,1.3,50.772,4.945H44.805L35.081,22.893h5.068l-13.5,22.828Zm19.769-24.1H37.065L45.592,6.15h13.23l-6.59,10.414,8.427.152L32.93,44.756Z" transform="translate(-16986 -13365.997)" fill="#b1b3bc"/>
  </g>
</svg>
