<svg xmlns="http://www.w3.org/2000/svg" width="100" height="76" viewBox="0 0 100 76">
  <g id="a7f086b8e3c3f97d7f0834d1d6cf11bb-icon_dtfl_ty_0" transform="translate(15765 13381)">
    <rect id="a7f086b8e3c3f97d7f0834d1d6cf11bb-r" width="100" height="76" transform="translate(-15765 -13381)" fill="#b1b3bc" opacity="0"/>
    <path id="a7f086b8e3c3f97d7f0834d1d6cf11bb-icon_dtfl_ty_0-2" data-name="icon_dtfl_ty_0" d="M40.141.475a34.066,34.066,0,0,1,23.8,18.231c3.443,7.514,4.014,10.217,3.041,21.3C65.6,52.218,55.691,61.726,46.117,65.867c-2.522,1.092-5.455,1.326-8.281,2.226a50.388,50.388,0,0,1-8.387-.106C15.677,67.154,1.181,52.779.206,39.054a65.316,65.316,0,0,1,0-10.069C1.285,15.154,14.45,2.793,27.141.475a50.33,50.33,0,0,1,13,0Zm0,4.027C38.07,5.3,30.6,6.69,30.076,8.422A28.888,28.888,0,0,0,31.647,18.81c3.494,1.8,6.988,3.614,10.482,5.406A44.938,44.938,0,0,0,52.4,20.189c1.406-1.061.4-4.5,0-6.146-.349-1.474-.7-2.968-1.048-4.451-2-2.924-7.344-4.062-11.214-5.088ZM19.8,7.892C16.19,9.66,9.453,15.17,8.384,19.128a19.911,19.911,0,0,0,.42,7.956,24.09,24.09,0,0,0,9.331,1.483c1.719-.442,3.339-2.889,4.4-4.133,1.423-1.666,5.746-4.522,6.29-6.571-.245-1.58-.488-3.18-.734-4.769-.318-1.874-.027-3.463-.838-4.663A51.079,51.079,0,0,0,19.8,7.892ZM53.249,22.2c-2.111,1.326-8.248,2.542-9.435,4.345l-1.048,5.934c-.42,2.431-.84,4.9-1.258,7.313.29,1.14,7.49,7.408,8.805,8.584,2.294-.024,8.177-3.191,8.805-4.769l1.048-6.889.944-6.889c-.376-1.505-2.252-2.8-3.145-3.921C56.9,24.585,55.507,22.22,53.249,22.2ZM9,29.834C7.091,31.049,7.111,33.37,6.28,35.768c-.455,1.271-.908,2.555-1.364,3.815-.564,2.8,3.507,10.83,4.926,11.764a15.062,15.062,0,0,0,5.136,1.271,11.841,11.841,0,0,0,4.716.53c.9-1.2,5.18-9.521,4.719-11.34l-3.249-5.936c-.61-1.445-1.426-4.148-2.725-4.875C15.326,30.612,12.141,30.214,9,29.834Zm54.3,3.286a36.211,36.211,0,0,0-1.989,11.446l.42.106.42-.318c.5-1.273,3.026-10.012,1.149-11.236ZM39.091,41.485c-2.676,1.56-9.808.705-12.266,2.332-1.22.807-1.739,3.167-2.307,4.663-.511,1.448-1.856,3.238-2.21,4.663-.506,2.1,6.111,7.6,7.547,8.162,1.671.65,4.546-.555,6.188-.849,1.865-.334,7.8-.72,8.6-1.8.712-.884,4.2-7.123,3.879-8.478C48.252,49.053,40.43,41.552,39.091,41.485Zm3.879,20.136c-3.076,1.213-8.107.345-10.8,1.907v.318l.314.106c2.033,1.377,11.252-.8,12.056-1.8-.139-.407,0-.221-.314-.424Z" transform="translate(-15749.012 -13377.054)" fill="#b1b3bc" fill-rule="evenodd"/>
  </g>
</svg>
